<svg version="1.1" xmlns="http://www.w3.org/2000/svg" xmlns:xlink="http://www.w3.org/1999/xlink" width="36.40949" height="44.20361" viewBox="0,0,36.40949,44.20361"><g transform="translate(-221.79525,-165.92861)"><g data-paper-data="{&quot;isPaintingLayer&quot;:true}" fill-rule="nonzero" stroke="none" stroke-linecap="butt" stroke-linejoin="miter" stroke-miterlimit="10" stroke-dasharray="" stroke-dashoffset="0" style="mix-blend-mode: normal"><text transform="translate(227.29835,206.16535) scale(0.31735,0.31735)" font-size="40" xml:space="preserve" fill="#000000" fill-rule="nonzero" stroke="none" stroke-width="1" stroke-linecap="butt" stroke-linejoin="miter" stroke-miterlimit="10" stroke-dasharray="" stroke-dashoffset="0" font-family="Sans Serif" font-weight="normal" text-anchor="start" style="mix-blend-mode: normal"><tspan x="0" dy="0">Web</tspan></text><path d="M254.99109,180c0,7.77141 -6.71174,14.07139 -14.99109,14.07139c-8.27935,0 -14.99109,-6.29998 -14.99109,-14.07139c0,-7.77141 6.71174,-14.07139 14.99109,-14.07139c8.27935,0 14.99109,6.29998 14.99109,14.07139z" fill="#3b969e" stroke-width="0"/><path d="M258.19217,186.36726c-0.37016,1.05761 -8.81515,-0.93575 -18.86241,-4.45229c-10.04726,-3.51654 -17.89209,-7.22462 -17.52193,-8.28222c0.37016,-1.05761 8.81515,0.93575 18.86241,4.45229c10.04726,3.51654 17.89209,7.22462 17.52193,8.28222z" fill="#c0e454" stroke-width="0"/><path d="M252.33162,173.55185c0.47282,0.7321 0.55937,1.51724 0.19332,1.75364c-0.36605,0.23641 -1.04609,-0.16543 -1.51891,-0.89753c-0.47282,-0.7321 -0.55937,-1.51724 -0.19332,-1.75364c0.36605,-0.23641 1.04609,0.16543 1.51891,0.89753z" fill="#858585" stroke-width="0"/><path d="M254.38667,183.51163c-0.50492,0.82702 -7.15352,-0.65624 -14.85006,-3.31295c-7.69653,-2.6567 -13.52649,-5.48082 -13.02156,-6.30783c0.50492,-0.82702 7.15352,0.65624 14.85006,3.31295c7.69653,2.6567 13.52649,5.48082 13.02156,6.30783z" fill="#3b969e" stroke-width="0"/></g></g></svg>