<svg version="1.1" xmlns="http://www.w3.org/2000/svg" xmlns:xlink="http://www.w3.org/1999/xlink" width="263.41971" height="63.40196" viewBox="0,0,263.41971,63.40196"><g transform="translate(-106.97219,-150.46581)"><g data-paper-data="{&quot;isPaintingLayer&quot;:true}" fill="#cccccc" fill-rule="nonzero" stroke="none" stroke-width="0" stroke-linecap="butt" stroke-linejoin="miter" stroke-miterlimit="10" stroke-dasharray="" stroke-dashoffset="0" style="mix-blend-mode: normal"><path d="M132.24398,160.69518c0,5.62166 -5.65728,10.17891 -12.63589,10.17891c-6.97861,0 -12.63589,-4.55725 -12.63589,-10.17891c0,-5.62166 5.65728,-10.17891 12.63589,-10.17891c6.97861,0 12.63589,4.55725 12.63589,10.17891z"/><path d="M131.62803,203.95383c0,5.4278 -5.50014,9.82791 -12.28489,9.82791c-6.78475,0 -12.28489,-4.40011 -12.28489,-9.82791c0,-5.4278 5.50013,-9.82791 12.28489,-9.82791c6.78475,0 12.28489,4.4001 12.28489,9.82791z"/><path d="M370.30587,159.65998c0,5.0778 -5.50014,9.19417 -12.28489,9.19417c-6.78475,0 -12.28489,-4.11637 -12.28489,-9.19417c0,-5.0778 5.50013,-9.19416 12.28489,-9.19416c6.78475,0 12.28489,4.11637 12.28489,9.19416z"/><path d="M370.39191,202.98688c0,6.00936 -5.65729,10.8809 -12.63589,10.8809c-6.97861,0 -12.63588,-4.87155 -12.63588,-10.8809c0,-6.00936 5.65728,-10.8809 12.63588,-10.8809c6.9786,0 12.63589,4.87154 12.63589,10.8809z"/><path d="M106.97221,203.16579v-42.82161h263.24761v42.82161z"/><path d="M116.18417,213.78174v-63.17943h245.69777v63.17943z"/></g></g></svg>