<svg version="1.1" xmlns="http://www.w3.org/2000/svg" xmlns:xlink="http://www.w3.org/1999/xlink" width="22.48932" height="17.61821" viewBox="0,0,22.48932,17.61821"><g transform="translate(-212.3472,-183.69818)"><g data-paper-data="{&quot;isPaintingLayer&quot;:true}" fill-rule="nonzero" stroke-linecap="butt" stroke-linejoin="miter" stroke-miterlimit="10" stroke-dasharray="" stroke-dashoffset="0" style="mix-blend-mode: normal"><path d="M213.3472,200.31639v-15.61821h20.48932v15.61821z" fill="#ff0000" stroke="#000000" stroke-width="2"/><path d="M230.50123,187.31918c1.57618,1.94053 -0.36435,3.51671 -0.36435,3.51671l-1.22344,0.98838c-0.53145,0.48489 -1.06855,0.95999 -1.61061,1.42719c0.55224,0.47899 1.10455,0.9723 1.65112,1.49524l0.77329,1.99098c0,0 0.06426,2.49917 -2.43491,2.56344c-1.43238,0.03683 -2.06491,-0.7684 -2.34392,-1.46255c-0.51534,-0.48056 -1.03293,-0.94113 -1.54925,-1.39259c-1.26003,0.98835 -2.53676,1.95932 -3.82232,2.93427c0,0 -1.99196,1.51066 -3.50262,-0.4813c-1.51066,-1.99196 0.4813,-3.50262 0.4813,-3.50262c1.02465,-0.77708 2.04388,-1.55074 3.05307,-2.33322c-0.885,-0.85971 -1.73682,-1.77903 -2.53444,-2.82301c0,0 -1.51126,-1.9915 0.48024,-3.50277c1.9915,-1.51126 3.50277,0.48024 3.50277,0.48024c0.75887,1.00796 1.58189,1.88763 2.44259,2.70839c0.68956,-0.58437 1.37108,-1.18115 2.04294,-1.79465l1.44185,-1.17648c0,0 1.94053,-1.57618 3.51671,0.36435z" fill="#000000" stroke="none" stroke-width="0.5"/></g></g></svg>