<svg version="1.1" xmlns="http://www.w3.org/2000/svg" xmlns:xlink="http://www.w3.org/1999/xlink" width="44.37516" height="47.94866" viewBox="0,0,44.37516,47.94866"><g transform="translate(-217.91328,-156.12237)"><g data-paper-data="{&quot;isPaintingLayer&quot;:true}" fill-rule="nonzero" stroke="none" stroke-linecap="butt" stroke-linejoin="miter" stroke-miterlimit="10" stroke-dasharray="" stroke-dashoffset="0" style="mix-blend-mode: normal"><path d="M225.7856,193.19733v-37.07496h25.02401v37.07496z" fill="#d5d5d5" stroke-width="0"/><path d="M233.91571,162.16678c0.692,-0.03705 1.73683,-1.86994 2.71758,-2.03008c1.14954,-0.18771 2.3443,0.395 3.21288,1.12508c0.28377,0.23852 0.40658,1.00362 0.73602,0.83367c1.79348,-0.92521 2.98672,-0.71143 5.08614,-0.7515c2.05169,-0.03916 4.51538,-3.58479 6.35278,-0.36832c1.50866,2.641 -2.74708,4.93041 -4.76446,5.24763c-2.22267,0.3495 -4.96068,1.16658 -7.03895,1.35745c-1.1107,0.10201 -2.10441,-2.19894 -2.98429,-1.51346c-3.13437,2.44186 -3.39453,1.05593 -6.28194,0.12868c-3.37687,-1.08444 -4.24819,-0.3467 -5.1513,-4.508c-0.04459,-0.18688 -0.06821,-0.3819 -0.06821,-0.58244c0,-0.35342 0.07334,-0.68972 0.20562,-0.99449c0.35084,-1.18606 0.95682,-1.5385 1.6961,-1.43347c0.19169,-0.04707 0.39206,-0.07204 0.59827,-0.07204c1.11672,0 2.06243,0.73219 2.38324,1.74269c1.23079,0.92019 2.44054,1.86464 3.30051,1.81859z" fill="#000000" stroke-width="0.5"/><path d="M231.99008,172.65137c1.28704,0.27135 2.06283,-1.80511 3.34687,-2.09029c1.22386,-0.27181 3.46797,1.23699 4.27586,0.91553c1.39555,-0.5553 2.63818,-1.02618 4.17064,-0.87988c2.18399,0.2085 7.89424,2.76302 5.43462,5.86527c-1.84022,2.32102 -4.23335,-0.28816 -6.016,-0.881c-0.63935,-0.21262 -2.35432,0.82628 -3.08741,0.90266c-1.47724,0.1539 -2.64076,-0.67074 -4.0302,-0.94482c-0.23257,-0.04588 -2.57136,2.45346 -3.33402,2.64412c-1.51585,0.37896 -6.36213,-2.32245 -6.11481,-3.90071c-0.10553,-0.27669 -0.16333,-0.57694 -0.16333,-0.89069c0,-1.38071 1.11929,-2.5 2.5,-2.5c0.35901,-0.31127 0.88596,-0.00367 1.41263,0.43708c0.17782,0.122 0.33908,0.2664 0.4797,0.42913c0.4568,0.42643 0.87208,0.84019 1.12544,0.8936z" fill="#000000" stroke-width="0.5"/><text transform="translate(218.01375,201.55935) scale(0.20093,0.20093)" font-size="40" xml:space="preserve" fill="#e0d7d7" fill-rule="nonzero" stroke="none" stroke-width="1" stroke-linecap="butt" stroke-linejoin="miter" stroke-miterlimit="10" stroke-dasharray="" stroke-dashoffset="0" font-family="Sans Serif" font-weight="normal" text-anchor="start" style="mix-blend-mode: normal"><tspan x="0" dy="0">ReadMe.txt</tspan></text></g></g></svg>