<svg version="1.1" xmlns="http://www.w3.org/2000/svg" xmlns:xlink="http://www.w3.org/1999/xlink" width="19.62172" height="12.54136" viewBox="0,0,19.62172,12.54136"><g transform="translate(-226.23338,-160.92726)"><g data-paper-data="{&quot;isPaintingLayer&quot;:true}" fill-rule="nonzero" stroke="none" stroke-width="0.5" stroke-linecap="butt" stroke-linejoin="miter" stroke-miterlimit="10" stroke-dasharray="" stroke-dashoffset="0" style="mix-blend-mode: normal"><path d="" fill="#948da2"/><path d="" fill="#948da2"/><path d="M234.16298,172.21862c0,-0.69036 0.55964,-1.25 1.25,-1.25c0.69036,0 1.25,0.55964 1.25,1.25c0,0.69036 -0.55964,1.25 -1.25,1.25c-0.69036,0 -1.25,-0.55964 -1.25,-1.25z" fill="#948da2"/><path d="M240.23427,170.94116c-1.16495,0.45319 -1.61814,-0.71176 -1.61814,-0.71176l-0.0642,-0.33091c-2.42347,-3.10444 -4.39857,-1.93921 -5.84963,1.28048c0,0 -0.51462,1.13915 -1.65377,0.62454c-1.13915,-0.51461 -0.62454,-1.65376 -0.62454,-1.65376c1.4475,-3.19719 4.69146,-6.59328 8.39904,-3.81986c0.69361,0.51886 1.11263,1.32789 1.66895,1.99183l0.45406,1.0013c0,0 0.45319,1.16495 -0.71177,1.61814z" fill="#948da2"/><path d="M245.2137,168.8631c-1.08522,0.62031 -1.70554,-0.46491 -1.70554,-0.46491l-0.23458,-0.444c-2.32234,-6.3586 -11.84868,-5.80425 -14.66443,-0.06122c0,0 -0.55915,1.11797 -1.67712,0.55881c-1.11797,-0.55915 -0.55881,-1.67712 -0.55881,-1.67712c3.87457,-7.62158 16.08523,-8.07408 19.24383,0.30882l0.06156,0.07409c0,0 0.62031,1.08522 -0.46491,1.70554z" fill="#948da2"/></g></g></svg>