<svg version="1.1" xmlns="http://www.w3.org/2000/svg" xmlns:xlink="http://www.w3.org/1999/xlink" width="23.1546" height="23.48042" viewBox="0,0,23.1546,23.48042"><g transform="translate(-228.4227,-168.25979)"><g data-paper-data="{&quot;isPaintingLayer&quot;:true}" fill-rule="nonzero" stroke="none" stroke-linecap="butt" stroke-linejoin="miter" stroke-miterlimit="10" stroke-dasharray="" stroke-dashoffset="0" style="mix-blend-mode: normal"><path d="M228.4227,191.74021v-23.48042h23.1546v23.48042z" fill="#9e9e9e" stroke-width="0"/><path d="M239.88406,185.02406c0.08694,0.07142 0.13429,0.11875 0.13429,0.11875l-3.37255,3.6948c-2.43309,-2.22721 -3.90018,-3.91322 -5.20248,-6.96554c0,0 -0.71355,-1.72385 0.58137,-2.80959c-0.40172,-3.42648 4.37506,-6.65026 6.40362,-8.0422l0.77025,-0.51241c0,0 2.08164,-1.38447 3.46611,0.69717c1.38447,2.08164 -0.69717,3.46611 -0.69717,3.46611l-0.7321,0.48678c-0.43187,0.28892 -0.81984,0.6421 -1.19756,1.00903c1.51901,-0.08388 3.06126,-0.04142 4.56687,-0.22977c0,0 2.48078,-0.30939 2.79017,2.17139c0.30939,2.48078 -2.17139,2.79017 -2.17139,2.79017c-2.21904,0.27595 -5.86938,0.78127 -7.80636,0.68728c-0.18619,-0.00903 -0.38105,-0.0091 -0.58145,-0.00426c0.76646,1.32602 1.68604,2.20141 3.04838,3.44227z" fill="#414141" stroke-width="0.5"/></g></g></svg>