<svg version="1.1" xmlns="http://www.w3.org/2000/svg" xmlns:xlink="http://www.w3.org/1999/xlink" width="241.54089" height="160.86597" viewBox="0,0,241.54089,160.86597"><g transform="translate(-119.22955,-99.56701)"><g data-paper-data="{&quot;isPaintingLayer&quot;:true}" fill-rule="nonzero" stroke="none" stroke-width="0" stroke-linecap="butt" stroke-linejoin="miter" stroke-miterlimit="10" stroke-dasharray="" stroke-dashoffset="0" style="mix-blend-mode: normal"><path d="M119.22956,260.43298v-160.86597h241.54089v160.86597z" fill="#d3d0d7"/><path d="M234.50201,173.12126v-19.48375h13.32637v19.48375z" fill="#b6b4ba"/><path d="M230.05232,179.30304l-12.38005,-15.04495l10.29037,-8.46764l12.38005,15.04496z" fill="#b6b4ba"/><path d="M253.87519,180.52158c0,5.72519 -4.79179,10.36636 -10.70275,10.36636c-5.91097,0 -10.70275,-4.64117 -10.70275,-10.36636c0,-5.72519 4.79179,-10.36637 10.70275,-10.36637c5.91097,0 10.70275,4.64118 10.70275,10.36637z" fill="#b6b4ba"/><path d="M237.65806,186.76545l-15.50514,11.7986l-8.06994,-10.60511l15.50514,-11.79861z" fill="#b6b4ba"/><path d="M245.27207,186.56305l-4.47587,18.96268l-12.96998,-3.06138l4.47588,-18.96267z" fill="#b6b4ba"/><path d="M234.43817,171.64815c4.55609,-3.46695 11.15125,-2.46417 14.73071,2.23977c3.57945,4.70394 2.78773,11.32775 -1.76836,14.7947c-4.55609,3.46695 -11.15126,2.46417 -14.73072,-2.23977c-3.57945,-4.70394 -2.78773,-11.32775 1.76837,-14.7947z" fill="#b6b4ba"/><path d="M234.33803,173.95806v-19.48375h13.32638v19.48375z" fill="#b6b4ba"/><path d="M229.88835,180.13982l-12.38005,-15.04496l10.29036,-8.46764l12.38005,15.04496z" fill="#b6b4ba"/><path d="M252.21849,180.85879c0,5.72519 -4.79179,10.36636 -10.70275,10.36636c-5.91097,0 -10.70275,-4.64118 -10.70275,-10.36636c0,-5.72519 4.79179,-10.36637 10.70275,-10.36637c5.91097,0 10.70275,4.64118 10.70275,10.36637z" fill="#b6b4ba"/><path d="M237.49407,187.60225l-15.50514,11.79861l-8.06994,-10.60512l15.50515,-11.7986z" fill="#b6b4ba"/><path d="M245.10808,187.39985l-4.47588,18.96267l-12.96998,-3.06138l4.47588,-18.96267z" fill="#b6b4ba"/><path d="M232.85827,171.65229c4.55609,-3.46695 11.15125,-2.46417 14.73071,2.23977c3.57945,4.70394 2.78773,11.32775 -1.76836,14.7947c-4.55609,3.46695 -11.15126,2.46417 -14.73072,-2.23977c-3.57945,-4.70394 -2.78773,-11.32776 1.76837,-14.79471z" fill="#b6b4ba"/><path d="M251.08576,179.13763l13.95502,13.59684l-9.29989,9.54487l-13.95502,-13.59684z" fill="#b6b4ba"/><path d="M231.4509,181.2504c-0.62774,-5.69067 3.62627,-10.82925 9.50161,-11.47736c5.87533,-0.64811 11.14711,3.43969 11.77485,9.13036c0.62774,5.69067 -3.62627,10.82926 -9.50161,11.47737c-5.87533,0.64811 -11.14711,-3.43969 -11.77485,-9.13036z" fill="#b6b4ba"/><path d="M242.70769,172.55415l14.118,-13.42753l9.18408,9.65635l-14.118,13.42753z" fill="#b6b4ba"/><path d="M248.73322,187.93616c-4.14849,3.9456 -10.81384,3.67199 -14.88748,-0.61112c-4.07364,-4.28311 -4.01296,-10.9538 0.13553,-14.8994c4.14849,-3.9456 10.81384,-3.67199 14.88748,0.61112c4.07364,4.28311 4.01295,10.9538 -0.13554,14.8994z" fill="#b6b4ba"/><path d="M251.15702,178.28789l13.95502,13.59684l-9.29988,9.54487l-13.95502,-13.59684z" fill="#b6b4ba"/><path d="M231.52214,180.40066c-0.62774,-5.69067 3.62627,-10.82925 9.50161,-11.47736c5.87533,-0.64811 11.14711,3.43969 11.77485,9.13036c0.62774,5.69067 -3.62627,10.82926 -9.50161,11.47737c-5.87533,0.64811 -11.14711,-3.43969 -11.77485,-9.13036z" fill="#b6b4ba"/><path d="M242.77892,171.70442l14.118,-13.42753l9.18409,9.65635l-14.118,13.42753z" fill="#b6b4ba"/><path d="M246.80551,185.42114c-4.14849,3.9456 -10.81384,3.67199 -14.88748,-0.61112c-4.07364,-4.28311 -4.01296,-10.95379 0.13553,-14.89939c4.14849,-3.9456 10.81384,-3.672 14.88748,0.61111c4.07364,4.28311 4.01295,10.9538 -0.13554,14.8994z" fill="#8d8b90"/></g></g></svg>