<svg version="1.1" xmlns="http://www.w3.org/2000/svg" xmlns:xlink="http://www.w3.org/1999/xlink" width="46.95305" height="36.15759" viewBox="0,0,46.95305,36.15759"><g transform="translate(-216.52348,-161.9212)"><g data-paper-data="{&quot;isPaintingLayer&quot;:true}" fill-rule="nonzero" stroke="none" stroke-width="0" stroke-linecap="butt" stroke-linejoin="miter" stroke-miterlimit="10" stroke-dasharray="" stroke-dashoffset="0" style="mix-blend-mode: normal"><path d="M256.77843,180c0,9.98464 -7.51196,18.0788 -16.77843,18.0788c-9.26647,0 -16.77842,-8.09416 -16.77842,-18.0788c0,-9.98464 7.51196,-18.0788 16.77842,-18.0788c9.26647,0 16.77843,8.09416 16.77843,18.0788z" fill="#3a669e"/><path d="M263.43415,186.74968c-0.77193,1.13367 -11.88953,-0.96925 -24.83185,-4.69699c-12.94232,-3.72774 -22.80838,-7.66869 -22.03644,-8.80236c0.77194,-1.13367 11.88953,0.96925 24.83185,4.69699c12.94232,3.72774 22.80837,7.66869 22.03644,8.80236z" fill="#8f9e3a"/><path d="M256.81606,181.79479c-0.63308,1.99059 -8.33672,1.57726 -17.20656,-0.92318c-8.86984,-2.50044 -15.54704,-6.14113 -14.91396,-8.13172c0.63308,-1.99059 8.33673,-1.57726 17.20657,0.92318c8.86984,2.50044 15.54704,6.14113 14.91395,8.13172z" fill="#3a669e"/></g></g></svg>