<svg version="1.1" xmlns="http://www.w3.org/2000/svg" xmlns:xlink="http://www.w3.org/1999/xlink" width="53.5" height="48" viewBox="0,0,53.5,48"><g transform="translate(-211.625,-156)"><g data-paper-data="{&quot;isPaintingLayer&quot;:true}" fill-rule="nonzero" stroke="none" stroke-linecap="butt" stroke-linejoin="miter" stroke-miterlimit="10" stroke-dasharray="" stroke-dashoffset="0" style="mix-blend-mode: normal"><path d="M211.625,204v-48h53.5v48z" fill="#d7d7d7" stroke-width="0"/><path d="M226.625,170c0,-1.38071 1.11929,-2.5 2.5,-2.5c1.38071,0 2.5,1.11929 2.5,2.5c0,1.38071 -1.11929,2.5 -2.5,2.5c-1.38071,0 -2.5,-1.11929 -2.5,-2.5z" fill="#8b8b8b" stroke-width="0.5"/><path d="M244.375,170.75c0,-1.38071 1.11929,-2.5 2.5,-2.5c1.38071,0 2.5,1.11929 2.5,2.5c0,1.38071 -1.11929,2.5 -2.5,2.5c-1.38071,0 -2.5,-1.11929 -2.5,-2.5z" fill="#8b8b8b" stroke-width="0.5"/><path d="M247.33911,179.31461c2.18539,1.21411 0.97129,3.3995 0.97129,3.3995l-1.27053,2.28624c-2.00207,3.32687 -4.51249,11.41881 -10.2492,9.85632c-1.60073,-0.43599 -1.9441,-2.70049 -2.73012,-4.16152c-1.56302,-2.90531 -2.3331,-6.38218 -3.71146,-9.41064c0,0 -1.03451,-2.27592 1.24141,-3.31042c2.27592,-1.03451 3.31042,1.24141 3.31042,1.24141c1.02943,2.26753 1.95422,4.58323 2.81927,6.91841c0.32901,0.88815 0.79756,1.73951 0.96927,2.67095c0.08207,0.4452 -0.57908,1.05008 -0.23012,1.33848c0.3091,0.25546 0.35089,-0.7229 0.5638,-1.06271c0.29306,-0.46773 0.69069,-0.86879 0.95128,-1.35536c0.92826,-1.73321 1.72623,-3.53842 2.73573,-5.22561l1.22947,-2.21376c0,0 1.21411,-2.18539 3.3995,-0.97129z" fill="#8b8b8b" stroke-width="0.5"/></g></g></svg>