<svg version="1.1" xmlns="http://www.w3.org/2000/svg" xmlns:xlink="http://www.w3.org/1999/xlink" width="21.46104" height="22.64776" viewBox="0,0,21.46104,22.64776"><g transform="translate(-225.45572,-161.01398)"><g data-paper-data="{&quot;isPaintingLayer&quot;:true}" fill-rule="nonzero" stroke-linejoin="miter" stroke-miterlimit="10" stroke-dasharray="" stroke-dashoffset="0" style="mix-blend-mode: normal"><path d="M246.91676,172.33786c0,6.254 -4.80422,11.32388 -10.73052,11.32388c-5.92631,0 -10.73052,-5.06987 -10.73052,-11.32388c0,-6.254 4.80422,-11.32388 10.73052,-11.32388c5.92631,0 10.73052,5.06987 10.73052,11.32388z" fill="#000000" stroke="none" stroke-width="0" stroke-linecap="butt"/><path d="M236.33939,165.34446l-0.66632,8.40966" fill="none" stroke="#000000" stroke-width="0.5" stroke-linecap="round"/><path d="M241.75763,168.93576l0.16216,0.17562l0.08957,0.04133l0.09267,0.07452l0.09233,-0.00198l0.38968,0.38959l0.42941,0.34531l0.00801,0.092l0.0841,0.08408l0.17215,0.28684l0.00698,0.00898l0.00004,0.00001l0.00008,0.00013l0.19169,0.24637l0.19849,0.44902l0.24023,0.42814l0.05979,0.21914l0.01421,0.0284l0.02841,0.12779l0.02254,0.08262l0.00044,0.02077l0.07329,0.32966l0.13934,0.55737v0.06944l0.01559,0.07012l-0.01559,0.02339v1.46071l-0.03415,0.1366l0.01885,0.13954l-0.04164,0.37468l-0.15325,0.41255l-0.09552,0.4296l-0.16658,0.33306l-0.04625,0.05395l-0.01925,0.0684l-0.16658,0.29142l-0.23108,0.24106l-0.17185,0.28632l-0.33316,0.33306l-0.21355,0.12809l-0.16754,0.18423l-0.37323,0.24874l-0.17179,0.1255l-0.33555,0.31382l-0.74961,0.41632l-0.26226,0.07032l-0.23339,0.13875l-0.16246,0.04872l-0.60054,0.3302l-0.22495,0.0593l-0.19667,0.12426l-0.86552,0.2854l-0.00959,0.00071l-0.00817,0.00508l-0.92521,0.29744l-0.26156,0.01731l-0.24642,0.0894l-1.2077,0.12489l-0.12988,-0.01856l-0.12728,0.03182h-1.364l-0.17157,-0.04289l-0.17586,0.01863l-0.58662,-0.08232l-0.61089,-0.08235l-0.41536,-0.16541l-0.43342,-0.10967l-0.43286,-0.23245l-0.38367,-0.19177l-0.09191,-0.07876l-0.11514,-0.03733l-0.33316,-0.20817l-0.26585,-0.27564l-0.16922,-0.04155l-0.1923,-0.33327l-0.26711,-0.27694l0.00544,-0.13811l-0.09109,-0.15316l-0.32908,-0.43177l0.01508,-0.09621l-0.0185,-0.03111l-0.04371,-0.05618l-0.038,-0.08597l-0.07401,-0.03506l-0.17948,-0.53838l-0.22945,-0.51906l0.03117,-0.07573l-0.02972,-0.08917l-0.02713,-0.35259l-0.13152,-0.35403l-0.02978,-0.2679l-0.03005,-0.18617l-0.12206,-0.48822v-0.26801l-0.00306,-0.01896l0.00306,-0.00405l0,-2.46367l-0.03163,-0.35233l0.05169,-0.32985l-0.06826,-0.14834l0.15191,-0.38544l0.06414,-0.4093l0.07226,-0.05036l0.04251,-0.41108l0.0304,-0.02365l0.1574,-0.39339l0.17647,-0.24429l0.0126,-0.03196l-0.00221,-0.0141l0.01609,-0.02111l0.08402,-0.2132l0.20822,-0.29142l0.24514,-0.20877l0.01416,-0.0196l0.00795,-0.00111l0.20545,-0.26956l0.30831,-0.24657l0.01238,-0.01238l0.08008,-0.10007l0.29949,-0.2281l0.05995,-0.16219l0.35641,-0.15493l0.30917,-0.23547l0.02552,0.00401l0.29778,-0.23815l0.10055,-0.04607l0.07441,-0.08183l0.24987,-0.16653l0.31447,-0.11226l0.28172,-0.17923l0.24987,-0.08326l0.09768,-0.0075l0.08645,-0.0461l0.06698,-0.01674l0.00445,-0.00222l0.03997,-0.00888l0.22177,-0.05542l0.02778,0l0.10271,-0.02281l0.16685,-0.06797c0.15938,-1.13892 0.4448,-1.99396 0.81957,-2.20812l2.15454,-1.23117c0.63268,0.36153 1.50433,0.48569 1.99291,0.99036c0.07451,0.07697 0.14011,0.16278 0.19459,0.25964c0.05884,0.1046 0.10941,0.2277 0.15212,0.36706c0.10366,0.27454 0.16038,0.57211 0.16038,0.88294c0,0.01888 -0.00021,0.03771 -0.00062,0.05649c0.04782,0.6292 0.01944,1.38731 -0.07126,2.1958l0.89555,0.29031l0.33315,0.20816l0,0l0,0l0.66632,0.41632l0.07517,0.07793l0.0998,0.042l0.66633,0.49958l0.14492,0.17831zM233.33112,171.30391l-0.13834,0.1383l-0.10733,0.06438l-0.03148,0.07988l-0.03598,0.34793l-0.0089,0.00693l0,2.40718l0.10963,0.29511l0.03091,0.27808l0.13556,0.40664l0.00781,0.01766l0.08996,0.15127l0.03458,0.01728l0.02858,0.02449l0.03649,0.00923l0.06571,0.03529l0.16828,0.02269l0.00649,0.00258l0.00694,-0.00074l0.42046,0.059l1.06051,0l0.8199,-0.08479l0.6679,-0.21472l0.63736,-0.21017l0.63057,-0.34671l0.25747,-0.06787l0.22888,-0.13606l0.15731,-0.04718l0.3194,-0.17739l0.22931,-0.25216l0.09412,-0.06273l0,-0.67209l-0.00474,-0.00845l-0.00977,-0.01256l-0.01012,-0.02289l-0.01215,-0.02165l-0.00415,-0.01523l-0.00062,-0.00141l-0.21923,-0.1763l-0.40863,-0.26787l-0.34505,-0.37371l-0.39897,-0.29913l-0.35647,-0.22272c-0.54037,1.30523 -1.2028,2.22281 -1.89355,2.22281c-1.0968,0 -1.77887,-1.2758 -2.13685,-2.94517z" fill="#ffffff" stroke="none" stroke-width="0.5" stroke-linecap="butt"/></g></g></svg>