<svg version="1.1" xmlns="http://www.w3.org/2000/svg" xmlns:xlink="http://www.w3.org/1999/xlink" width="86.02834" height="76.27144" viewBox="0,0,86.02834,76.27144"><g transform="translate(-196.98583,-141.86428)"><g data-paper-data="{&quot;isPaintingLayer&quot;:true}" fill-rule="nonzero" stroke-linecap="butt" stroke-linejoin="miter" stroke-miterlimit="10" stroke-dasharray="" stroke-dashoffset="0" style="mix-blend-mode: normal"><path d="M282.01417,180c0,20.50949 -18.81038,37.13572 -42.01417,37.13572c-23.20378,0 -42.01417,-16.62623 -42.01417,-37.13572c0,-20.50949 18.81038,-37.13572 42.01417,-37.13572c23.20378,0 42.01417,16.62623 42.01417,37.13572z" fill="#00d0ff" stroke="#000000" stroke-width="2"/><path d="M229.68736,194.36221c-0.48968,-0.03631 -2.3857,-0.31745 -2.3857,-2.49462c0,-2.5 2.5,-2.5 2.5,-2.5l0.73465,0.06224c3.21192,0.74977 6.40849,1.06668 9.53408,-0.14337c1.11044,-0.92709 2.72738,-2.15017 3.60724,-3.35336c0.70964,-0.97041 2.78912,-4.24919 2.26531,-5.73601c-0.34974,-0.99272 -1.93103,-0.85825 -2.94646,-1.13523c-3.44117,-0.93862 -7.14638,-2.25212 -9.78866,-4.79163c-1.05259,-1.01164 -2.07075,-2.13618 -2.68377,-3.46116c-3.39589,-7.33984 3.33979,-13.25726 9.45145,-15.67724c2.84886,-1.12804 4.73427,-1.48919 7.48502,-2.11621c0,0 2.43787,-0.55388 2.99175,1.88399c0.55388,2.43787 -1.88399,2.99175 -1.88399,2.99175c-2.50823,0.56786 -4.11512,0.86911 -6.72982,1.88044c-1.08557,0.41988 -2.13998,0.93723 -3.12651,1.5549c-0.75258,0.4712 -1.40948,1.08475 -2.05805,1.69119c-4.88615,4.56872 0.68599,8.81019 5.1368,10.52441c1.09209,0.42062 4.96651,1.18864 5.79585,1.72091c1.16797,0.7496 2.37981,1.67632 2.94356,2.94448c2.64696,5.95443 -4.02396,12.23955 -7.94643,15.40119c-4.42485,1.701 -8.32113,1.73833 -12.89634,0.75333z" fill="#007590" stroke="none" stroke-width="0.5"/></g></g></svg>