<svg version="1.1" xmlns="http://www.w3.org/2000/svg" xmlns:xlink="http://www.w3.org/1999/xlink" width="717.38821" height="543.58018" viewBox="0,0,717.38821,543.58018"><g transform="translate(119.43547,78.81458)"><g data-paper-data="{&quot;isPaintingLayer&quot;:true}" fill-rule="nonzero" stroke="none" stroke-linecap="butt" stroke-linejoin="miter" stroke-miterlimit="10" stroke-dasharray="" stroke-dashoffset="0" style="mix-blend-mode: normal"><path d="M-28.29002,452.48797v-495.81598h624.29947v495.81598z" fill="#d47d7d" stroke-width="0"/><path d="M137.86294,-77.9994c0.65184,-0.69522 1.62042,-0.81519 1.62042,-0.81519l1.8917,4.68893c-4.01696,1.81895 -7.00509,3.66897 -10.72245,6.04849c-6.57591,4.20927 -13.54078,8.03827 -19.89828,12.56143c-6.70463,4.77014 -12.97855,10.37489 -19.37566,15.55187c-7.39759,5.98664 -15.27752,11.63632 -22.39641,17.94173c-2.20227,1.95061 -4.34268,3.99652 -6.46026,6.07499c0.67878,0.40882 1.14747,1.13099 1.20584,1.96628l0.39736,4.96127l-0.03955,0.00317c0.01324,0.18394 0.02074,0.36865 0.0218,0.5542c0.01063,1.85147 -1.28115,3.47437 -1.93552,5.20638c-2.39893,6.34959 -4.67263,12.68246 -7.83575,18.69204c-3.88753,7.38588 -8.74062,14.21176 -12.66843,21.56195c-6.42731,12.02757 -12.95373,23.86296 -18.6871,36.28878c-6.01748,11.7003 -12.24376,23.32851 -17.08125,35.58057c-1.73092,4.38394 -4.30721,9.02523 -5.61885,13.51963c-0.25857,0.88602 0.08157,1.86213 -0.09967,2.76714c-0.63233,3.15753 -2.08231,5.27614 -3.60666,8.13462c-0.57935,1.08641 -1.07633,2.22167 -1.74509,3.25544c-0.31599,0.48845 -1.1022,0.70311 -1.18799,1.2785c-0.18178,1.21926 0.84239,2.50204 0.45011,3.67069c-0.40618,1.21006 -2.11492,1.62052 -2.6197,2.79287c-0.54247,1.25988 0.03685,2.78384 -0.34833,4.10036c-0.11766,0.40216 -3.98118,8.4521 -4.32277,9.16693c-2.31509,10.48248 -5.9354,20.95754 -9.11973,31.26831c6.08431,-5.78949 11.54023,-12.62728 17.0773,-18.87493c13.28565,-14.99063 25.88385,-30.27594 38.17508,-46.09161c9.43686,-11.45691 16.2666,-24.49766 24.21166,-37.00652c7.80898,-12.29461 15.74765,-25.20668 24.66556,-36.72124c2.71637,-3.50731 6.21223,-6.6396 9.24386,-9.87412c7.84456,-8.63798 15.50694,-17.49457 23.5584,-25.93937c15.50129,-16.25855 32.93557,-30.64319 50.24351,-44.89239c3.86312,-3.17712 7.8614,-5.91341 11.99419,-8.72578c0.53914,-0.36689 8.41583,-5.74819 8.74347,-5.87955c0.32577,-0.13061 9.74191,-1.68255 10.38349,-1.78905c3.08489,-0.51209 6.20682,-0.85816 9.33235,-0.95728c1.95577,-0.06202 4.01493,-0.83985 5.86659,-0.20723c6.3696,2.17621 8.08905,8.63015 8.15138,14.33058c0.073,6.67719 -0.65149,13.63903 -2.99957,20.00176c-1.54178,4.17783 -4.32548,8.32711 -6.52646,12.20854c-11.28626,19.89928 -25.28884,37.46079 -39.61857,55.19756c-7.17353,8.87911 -14.23924,17.64532 -21.92161,26.0941c-0.31888,0.3507 -0.63662,0.70234 -0.95329,1.05486c-0.19991,1.40421 -0.37996,2.80861 -0.52984,4.21254c-0.83461,7.81785 -0.35506,16.31503 -3.68604,23.71167c-0.64589,1.43424 -1.86901,2.56112 -2.50144,4.00135c-0.52543,1.19658 -0.5084,2.57153 -0.92823,3.80911c-1.39079,4.09978 -3.36491,8.09363 -5.03433,12.09257c-1.50591,4.52146 -2.69431,9.66377 -4.81427,13.93851c-0.74549,1.50322 -1.96711,2.73369 -2.73772,4.2242c-1.94047,3.75323 -3.19393,7.88217 -4.64941,11.89776c18.5882,-17.34078 36.7313,-35.18218 55.62056,-52.21366c3.0027,-3.29251 5.86193,-7.01079 9.15132,-10.0057c4.90784,-4.46846 10.83926,-8.19547 16.13947,-12.19645c9.14526,-6.90349 18.49734,-13.5924 27.748,-20.40664c10.56387,-12.46068 21.22059,-24.92061 33.32984,-35.87291c10.35401,-9.36184 22.12931,-16.79047 32.8519,-25.68466c2.87148,-2.38185 5.84315,-5.05213 8.96943,-7.54666c3.23865,-4.81284 6.33717,-9.75226 9.58095,-14.45471c0,0 1.41954,-2.05789 3.47743,-0.63835c2.05788,1.41954 0.63834,3.47743 0.63834,3.47743c-1.10691,1.60467 -2.19738,3.23598 -3.28237,4.88009c0.934,-0.42958 1.88299,-0.81223 2.84798,-1.13924c7.7804,-2.6365 16.17405,-3.06036 24.29647,-3.658c0.58528,-0.0002 10.26196,-0.02031 10.60396,0.05119c0.32684,0.06833 9.08257,3.91283 9.65243,4.16255c4.83862,2.12038 8.916,4.75992 13.32367,7.65603c1.4203,0.93322 3.0236,1.63983 4.24969,2.81663c0.18053,0.17327 3.95283,5.34145 5.52845,7.50264c3.68019,-3.34969 7.46747,-6.60576 10.9795,-9.9426c14.29004,-15.51868 28.08295,-31.61473 45.73422,-43.3786c6.63632,-4.42285 13.37091,-8.7486 21.25205,-10.66408c4.71648,-1.14632 10.0161,-1.20826 14.8315,-1.21268c2.81135,0.00932 5.631,0.36969 8.37885,0.96395c1.39783,0.3023 3.10809,0.08709 4.15783,1.05835c1.50339,1.39099 1.95828,3.59925 2.86245,5.43705c0.74014,1.50438 1.78581,2.93226 2.06822,4.5849c0.77912,4.55942 -0.70835,10.96186 -1.04249,15.59833c-0.47921,6.64942 -0.95842,13.29884 -1.43763,19.94826c-0.21211,2.94324 0.03748,5.96108 -0.66206,8.82785c-0.06689,0.2741 -3.44635,9.24439 -3.61952,9.70521c-2.94978,7.84966 -5.95768,15.59099 -9.35513,23.25863c-2.16602,5.66176 -3.94772,11.73475 -6.58606,17.19145c-4.18597,8.65754 -9.38005,16.81764 -13.51675,25.52584c-7.63392,16.07022 -15.34985,31.87971 -24.79685,46.9937c-8.44295,13.4961 -18.43155,26.2099 -27.98241,38.94044c-10.30206,13.73182 -20.39721,27.70357 -31.27036,40.98891c-3.88567,4.47462 -8.22278,8.80411 -11.77193,13.54864c-5.25792,7.02884 -9.89436,14.32804 -15.56511,21.07547c-11.68365,13.902 -23.38923,27.68742 -34.93356,41.69226c-7.04811,8.10038 -14.80498,16.01715 -21.19166,24.65413c-1.43025,1.93419 -4.01024,6.58598 -5.4275,8.44353c-8.72757,11.43892 -19.96564,20.88128 -29.44017,31.64842c-3.37491,3.83534 -6.08782,7.63399 -9.89151,11.09602c-6.23783,7.14372 -13.33087,13.9252 -18.68306,21.73526c-3.43145,5.00727 -6.51944,9.38633 -7.54423,15.56233c-0.47506,2.86301 -0.22512,6.73942 -0.34605,9.59859c-0.02789,0.65947 -0.56681,1.38514 -0.2502,1.96432c1.27868,2.33909 4.57198,2.10827 6.58447,2.44221c8.35575,1.38649 17.18696,0.59354 25.65413,0.59354c10.92717,0.02578 21.03598,-3.41075 31.23583,-6.887c6.08004,-2.07216 12.86611,-3.61706 18.67338,-6.34787c5.80727,-2.73082 11.32549,-6.9719 16.79946,-10.3329c5.39659,-3.31349 11.87507,-6.26428 16.76847,-10.26902c2.49266,-2.03999 4.37315,-4.73027 6.56808,-7.08764c11.29296,-12.12872 23.25979,-23.89067 33.99775,-36.51015c7.2448,-8.51424 14.68539,-17.74967 20.96723,-26.99563c3.62223,-5.33141 6.67748,-11.15456 10.03556,-16.66007c8.41933,-13.80327 17.2428,-27.71511 24.32139,-42.27115c7.57343,-15.57361 13.21129,-32.27243 19.61713,-48.34632c1.69516,-4.25321 3.68343,-8.42661 5.27883,-12.71477c1.65499,-4.44832 2.74719,-9.13429 4.51622,-13.53839c5.04021,-12.54791 12.43698,-24.24534 18.61762,-36.24328c4.58092,-8.89255 8.86624,-18.06054 14.41512,-26.39256c0.19432,-0.29139 5.59532,-8.39882 5.71268,-8.53912c3.09409,-3.69912 6.97306,-6.78325 9.45816,-11.04693c0.84335,-1.44693 1.11928,-3.18152 1.9828,-4.61651c3.10561,-5.16091 7.80906,-10.10793 12.4706,-13.84983c1.46008,-1.17203 2.7383,-2.63421 4.40812,-3.48107c1.23715,-0.62743 2.7559,-0.40729 4.0792,-0.8233c1.65531,-0.52039 3.12127,-1.60545 4.81698,-1.97345c5.92332,-1.28549 13.34594,-0.13081 19.40752,-0.13081c0.59951,0 10.1745,-0.01471 10.4898,0.04845c0.98531,0.19737 8.60412,3.6176 9.71014,4.10607c4.95241,2.18739 9.34075,3.96923 13.63665,7.33129c1.59495,1.24824 3.73708,2.06252 4.70939,3.83919c0.9036,1.65112 0.38806,3.74654 0.47112,5.62691c0.12304,2.78565 1.01175,5.82231 -0.13486,8.36402c-0.52885,1.17231 -5.59105,7.26809 -6.55831,8.54907c-5.95602,7.88791 -11.57185,16.26609 -17.027,24.5101c-5.52331,8.34701 -10.23441,17.23188 -16.42109,25.11424c-4.0998,5.21629 -8.36193,10.34394 -12.31731,15.67014c-4.69068,6.31633 -8.61236,13.37821 -13.63045,19.43479c-2.12202,2.56117 -4.7387,4.69052 -6.81059,7.29242c-5.09143,6.39387 -9.29611,13.78471 -13.8732,20.56107c-4.67032,6.9144 -9.84478,13.29857 -14.31333,20.36863c-5.40974,8.5592 -11.89739,16.07422 -17.68251,24.34102c-14.00331,20.01039 -24.96086,42.15828 -39.84426,61.58302c-20.65706,26.94205 -40.87545,54.06257 -62.38148,80.34938c-11.1887,13.67 -22.16412,28.24196 -32.06271,42.8845c-3.65492,5.40656 -7.36156,11.04351 -10.57102,16.72519c-0.79994,1.41613 -1.22741,3.0491 -2.18937,4.36057c-0.54381,0.74138 -3.04552,1.24963 -2.21492,1.64394c0.93334,0.44308 1.76535,-1.16626 2.77676,-1.37722c3.26311,-0.6806 6.65875,-0.32476 9.98813,-0.48714c1.4146,-0.02984 2.91776,0.40404 4.2438,-0.08951c2.88776,-1.07481 4.7807,-3.88933 7.20763,-5.78785c3.82697,-2.99374 7.51418,-6.12582 11.22358,-9.26356c18.843,-15.9391 36.7909,-32.80599 55.06797,-49.39435c6.13772,-5.48105 12.7568,-10.70424 18.5426,-16.55222c4.49012,-4.53838 8.13928,-9.90918 12.62801,-14.45018c5.42924,-5.49248 11.58871,-10.27604 17.14623,-15.63986c8.47753,-8.18204 16.89631,-15.91618 26.11777,-23.27949c4.12885,-2.58586 8.59248,-6.23346 13.07121,-8.14025c1.50079,-0.63896 3.27625,-0.47307 4.75207,-1.16778c1.35807,-0.63927 2.37276,-1.83912 3.56713,-2.74825c3.87995,-2.95333 7.75175,-5.9464 11.69965,-8.80831c9.20314,-6.67155 18.1994,-13.50368 26.86262,-20.88529c3.44584,-2.93608 7.75728,-5.91761 10.77516,-9.27918c3.17323,-3.53461 5.17599,-7.66282 8.58575,-11.0875c2.09144,-2.05173 3.82762,-4.54821 4.98228,-7.24088l4.788,1.50764c0,0 0,1.31842 -0.95744,2.04038c-1.38558,2.64833 -3.18901,5.10769 -5.27786,7.22893c-3.37583,3.35713 -5.27909,7.41631 -8.42234,10.91622c-3.15529,3.51333 -7.63315,6.65491 -11.23526,9.72402c-8.76016,7.46394 -17.857,14.37554 -27.16339,21.12175c-5.12992,3.71868 -10.35971,9.2759 -16.05144,12.02324c-1.53296,0.73994 -3.37944,0.59933 -4.94955,1.25678c-4.1567,1.74052 -8.30561,5.22816 -12.135,7.61752c-9.02008,7.227 -17.252,14.8041 -25.55649,22.81673c-5.51776,5.32385 -11.63564,10.07128 -17.02649,15.52161c-4.49556,4.54517 -8.14945,9.92359 -12.64626,14.46872c-5.85423,5.91714 -12.54149,11.20601 -18.75158,16.75158c-18.315,16.62306 -36.30187,33.52342 -55.18424,49.49583c-5.03154,4.25613 -10.07379,8.45995 -15.30981,12.46506c-1.5245,1.16611 -2.80763,2.78536 -4.60643,3.45487c-1.79881,0.66951 -3.82954,0.26508 -5.74432,0.39763c-3.32938,0.16238 -6.65947,0.66345 -9.98813,0.48714c-2.41864,-0.12811 -5.8193,1.09193 -7.21137,-0.89008c-1.32099,-1.88082 1.12422,-4.46774 1.93888,-6.61688c1.77573,-4.68455 5.04635,-8.93074 7.69773,-13.13655c11.27893,-17.89141 24.33182,-35.37928 37.72256,-51.7536c21.47274,-26.24611 41.65831,-53.3252 62.28344,-80.22561c14.84952,-19.35409 25.75545,-41.45871 39.71564,-61.40749c5.74088,-8.20357 12.18536,-15.65384 17.55248,-24.1456c4.49546,-7.11264 9.70159,-13.53957 14.39601,-20.49516c4.64813,-6.88699 8.93194,-14.38057 14.10569,-20.87782c1.04075,-1.30699 5.69597,-5.95068 6.83804,-7.32658c4.97527,-5.99392 8.85385,-13.01032 13.50023,-19.267c3.98259,-5.36285 8.27236,-10.52667 12.40035,-15.77883c6.10938,-7.76184 10.73716,-16.5546 16.18246,-24.78371c5.51232,-8.33041 11.19004,-16.79079 17.20604,-24.76325c1.85256,-2.45503 4.40712,-4.42783 5.81978,-7.15977c0.25955,-0.50195 -0.12391,-1.12488 -0.13538,-1.68985c-0.0335,-1.64929 -0.01962,-3.29937 0.00053,-4.94887c0.01386,-1.13501 0.66484,-2.41835 0.10149,-3.40378c-0.65117,-1.13907 -2.21688,-1.40637 -3.28607,-2.16685c-4.14259,-2.94649 -7.99124,-4.69594 -12.65376,-6.75529c-2.88341,-1.27365 -5.57816,-3.16103 -8.66962,-3.7767c-1.47452,-0.29366 -3.00672,0.04079 -4.51019,0.04845c-4.83516,0.02464 -9.67143,0.00005 -14.50666,0c-2.95906,-0.00003 -5.9922,-0.63325 -8.87713,0.02489c-1.55818,0.35547 -2.88863,1.39544 -4.41427,1.87158c-1.09927,0.34308 -2.37818,0.05302 -3.40741,0.56954c-1.30619,0.65551 -2.22596,1.89448 -3.35397,2.82368c-4.197,3.45726 -8.52162,7.81678 -11.33321,12.53743c-0.8487,1.42497 -1.11706,3.14466 -1.95781,4.57433c-2.65445,4.51378 -6.6473,7.81663 -9.94193,11.73352c-2.08692,2.48108 -3.58504,5.40292 -5.38383,8.10021c-5.45841,8.17316 -9.64472,17.20497 -14.14375,25.93456c-6.10133,11.83857 -13.43111,23.38522 -18.40029,35.76868c-1.75736,4.37945 -2.84143,9.0431 -4.48822,13.46609c-1.60683,4.31565 -3.60476,8.51578 -5.31061,12.79659c-6.4517,16.18896 -12.13769,32.99676 -19.76537,48.68193c-7.14826,14.69933 -16.04721,28.74922 -24.54928,42.68815c-3.40402,5.58076 -6.5056,11.47774 -10.1787,16.8814c-6.38218,9.38912 -13.92686,18.76381 -21.2847,27.4109c-10.78661,12.67665 -22.8024,24.4936 -34.14639,36.67712c-0.28884,0.31022 -6.88885,7.40913 -7.06075,7.54981c-5.07259,4.15139 -11.72687,7.22704 -17.31895,10.66057c-5.63365,3.45905 -11.31007,7.78564 -17.28796,10.59668c-5.97789,2.81104 -12.93072,4.42325 -19.18812,6.55586c-10.74326,3.66145 -21.35319,7.13029 -32.84879,7.15431c-8.71907,0 -17.93186,0.91967 -26.52279,-0.66958c-1.85521,-0.34319 -3.88118,-0.20549 -5.55794,-1.0704c-1.87436,-0.96684 -3.63606,-2.40999 -4.70917,-4.22559c-0.69237,-1.17144 -0.17547,-2.71688 -0.19831,-4.07744c-0.03949,-2.35158 0.03173,-8.09688 0.41399,-10.37829c2.69542,-16.08684 17.35862,-28.29801 27.59018,-39.97674c3.75472,-3.40701 6.37686,-7.11302 9.70682,-10.89728c9.39561,-10.67745 20.56487,-20.03597 29.21872,-31.37828c2.01436,-2.64015 3.40792,-5.71332 5.38236,-8.38344c6.45339,-8.72719 14.27405,-16.72849 21.39647,-24.91279c11.53337,-13.99409 23.22897,-27.76888 34.90458,-41.65773c5.63283,-6.70058 10.22051,-13.95576 15.44992,-20.93165c3.5999,-4.80217 7.97297,-9.18697 11.90898,-13.71858c10.81346,-13.21108 20.84846,-27.11081 31.09337,-40.76646c9.46454,-12.61549 19.38343,-25.21147 27.74233,-38.59042c9.35031,-14.95256 16.97152,-30.60002 24.52549,-46.49975c4.13061,-8.69416 9.30656,-16.84468 13.49634,-25.4826c2.60965,-5.38023 4.3562,-11.39895 6.49528,-16.98475c3.37369,-7.62081 6.36546,-15.30998 9.29688,-23.11077c1.13056,-3.00855 2.64018,-5.89758 3.41582,-9.01654c0.65452,-2.63194 0.36418,-5.412 0.55913,-8.11709c0.47921,-6.64942 0.95842,-13.29884 1.43763,-19.94826c0.2396,-3.32471 0.45031,-6.65163 0.71882,-9.97413c0.11728,-1.45122 0.63353,-2.91364 0.39515,-4.34994c-0.20544,-1.2378 -1.17095,-2.22187 -1.67648,-3.37026c-0.51991,-1.18107 -0.52228,-2.66149 -1.39653,-3.61066c-0.45696,-0.49612 -1.35376,-0.00142 -2.02105,-0.09981c-2.4763,-0.36516 -4.95463,-0.88805 -7.45769,-0.87837c-4.41008,-0.00429 -9.32795,0.02062 -13.65064,1.07124c-7.30448,1.77533 -13.51412,5.87018 -19.66,9.96617c-17.35381,11.56563 -30.88621,27.47595 -44.94383,42.72551c-3.65254,3.47608 -7.61712,6.85812 -11.44145,10.35229c2.14839,2.52942 4.56263,5.33925 5.46853,7.94591c0.61222,1.76161 0.61727,3.67854 0.9092,5.52051c0.06626,0.4181 1.52482,10.02912 1.52662,10.24036c0.06969,8.15731 -2.25973,17.03693 -3.34546,25.13182c-1.15868,8.37758 -5.19245,15.97061 -8.41948,23.76374c-4.3465,10.49662 -10.13594,20.10773 -15.86271,29.88789c-3.15591,5.38966 -6.01137,11.19846 -9.56903,16.33078c-4.34251,6.26451 -9.47838,12.06945 -14.62811,17.66649c-8.29911,11.77952 -18.6227,21.6381 -28.79584,31.80754c-7.07097,7.06841 -13.69459,14.56901 -20.73462,21.66496c-6.66366,6.7166 -14.07368,12.61513 -20.71648,19.2732c-12.94295,12.93892 -26.93543,25.48651 -38.87875,39.35984c-0.12708,0.14761 -5.84584,7.32974 -6.0251,7.52616c-7.88843,8.64389 -16.77843,16.04917 -24.29637,25.07509c-22.61186,24.57365 -43.87676,50.24018 -65.41806,75.69222c-3.83744,4.53368 -7.90219,8.80128 -11.82711,13.24394c-1.94002,2.19592 -3.46781,4.79278 -5.69698,6.6945c-2.58424,2.20463 -5.58856,3.86692 -8.29299,5.92233c-4.44745,3.38013 -9.20543,7.65391 -14.54559,9.57025c-1.00752,0.36155 -2.14026,0.23739 -3.16359,0.55141c-1.65318,0.5073 -3.13011,1.5681 -4.82711,1.90064c-1.7849,0.34976 -3.63659,0.09567 -5.45534,0.11427c-3.02629,0.03096 -7.67639,0.89445 -9.87755,-2.42628c-1.1262,-1.69902 -0.90518,-3.97557 -1.30056,-5.97523c-0.83953,-4.24604 -1.48653,-8.5421 -2.21354,-12.80925c-0.00589,-3.33105 -0.38135,-6.68472 0.00619,-9.99315c0.57827,-4.9368 2.26175,-10.04754 3.35013,-14.90127c0.07993,-0.35644 2.18632,-9.84805 2.24871,-10.02898c2.15201,-6.24169 5.87203,-12.34951 8.71632,-18.3134c2.14308,-4.49361 4.00505,-9.49068 6.57195,-13.75272c2.5669,-4.26205 6.11314,-8.24473 9.08292,-12.24045c4.0075,-5.39195 7.93371,-10.82274 12.22781,-15.99084c4.26194,-5.12748 8.30061,-10.67767 12.89589,-15.50607c5.73664,-6.02765 12.40174,-11.39857 18.53191,-17.02907c14.74757,-13.54549 29.89231,-26.63568 44.97234,-39.80778c14.02555,-12.25105 27.11086,-25.49678 40.59726,-38.33699c9.902,-9.42756 20.88951,-18.32409 29.68737,-28.78684c9.19934,-10.91995 18.63761,-21.81225 28.36678,-32.26472c3.35404,-3.6034 7.14778,-6.95552 10.29919,-10.73572c2.11965,-2.54258 3.76377,-5.45182 5.81201,-8.05227c7.21335,-9.15808 15.16997,-17.97305 22.99371,-26.61273c8.67118,-9.57462 16.42059,-19.80206 24.86806,-29.54697c5.28715,-6.09922 11.45182,-11.5962 16.44874,-17.93143c0.53005,-0.67201 5.04505,-7.47099 5.55711,-8.0674c1.85665,-2.16252 3.87325,-4.23657 5.97175,-6.25774c-1.72996,-2.46621 -3.12298,-5.22267 -5.28999,-7.30792c-1.00781,-0.96978 -2.36284,-1.49726 -3.53824,-2.25529c-4.2084,-2.71405 -8.00022,-5.25904 -12.59808,-7.26459c-2.89907,-1.26454 -5.57664,-3.20237 -8.67256,-3.8496c-3.06578,-0.64092 -6.26398,0.05228 -9.39604,0.05119c-7.61364,0.56758 -15.42363,0.92571 -22.7259,3.34317c-2.4536,0.81228 -4.5059,2.53526 -6.71274,3.88054c-1.79829,1.09623 -3.45834,2.23418 -5.05148,3.41239c-2.14067,3.14116 -4.34969,6.21767 -6.70492,9.1312c-3.82198,4.72797 -8.63179,8.6241 -12.93316,12.88094c-3.56311,3.52621 -6.78545,7.4769 -10.47955,10.86456c-6.12925,5.62078 -12.97433,10.65283 -19.35627,15.99763c-8.16861,6.8411 -16.69539,13.26295 -25.30086,19.5853c-2.98565,3.52339 -5.96533,7.04518 -8.97127,10.52973c-7.90365,9.16209 -15.2529,18.97245 -24.08165,27.3162c-9.40175,11.61706 -18.37293,23.60192 -27.84265,35.15584c-6.35983,7.75957 -13.27583,15.03598 -19.89178,22.56703c-6.60723,7.52113 -12.87195,15.3186 -19.55645,22.77773c-8.87574,9.90428 -18.15708,19.51665 -26.81584,29.60721c-5.42832,6.32594 -10.22765,13.20352 -15.7229,19.47106c-3.27987,3.7408 -7.09793,7.03475 -10.30869,10.83383c-5.29453,6.26466 -9.85325,13.29404 -14.45965,20.06601c-12.01007,17.65629 -22.978,35.79289 -34.19303,53.93989c-3.21393,5.20044 -6.12435,10.62112 -9.21808,15.89622c-0.38185,0.65109 -4.6737,8.0378 -5.17521,8.61703l-2.59569,4.22149c-0.43526,0.73527 -1.23648,1.22831 -2.15285,1.22831c-1.38071,0 -2.5,-1.11929 -2.5,-2.5c0,-0.17428 0.01784,-0.34439 0.05178,-0.50861l0.5108,-2.73206l0.1452,0.02715l-0.05826,-0.36196c3.29578,-6.70504 6.84381,-13.79361 11.39893,-19.74486c0.73288,-0.95751 1.85502,-1.57685 2.56235,-2.55339c1.50098,-2.07223 1.95461,-4.73815 3.15508,-6.99778c2.37406,-4.46865 5.54802,-8.20154 7.77761,-12.80006c4.24614,-7.06031 8.18411,-14.29469 12.33563,-21.39489c5.50611,-9.4169 12.91463,-17.80054 18.6489,-27.12204c7.58104,-12.32355 14.51598,-24.81165 20.82411,-37.8148c2.99412,-5.98655 5.74083,-12.20758 9.02703,-18.0378c3.36269,-5.96594 7.04394,-11.85248 10.02081,-18.05238c-0.93834,0.83888 -1.88011,1.67443 -2.82561,2.50632c-9.45211,8.31633 -17.78528,17.71595 -26.7682,26.52383c-15.46279,15.16149 -31.58992,29.72182 -47.84866,44.01847c-12.19136,12.11186 -24.72776,24.07237 -36.1108,36.94754c-5.50436,6.22589 -10.26512,13.1091 -15.71836,19.3807c-5.37929,6.18656 -12.09288,11.40408 -18.48089,16.51375c-9.11381,7.52985 -17.78984,17.11106 -29.51099,19.98967c-3.4695,0.85208 -7.25536,2.13619 -10.92354,1.33886c-1.14625,-0.24915 -2.0216,-1.2172 -2.89644,-1.99863c-3.98991,-3.56387 -4.20383,-8.12055 -3.33752,-13.25045c0.82528,-4.88695 2.95079,-9.97474 4.37028,-14.72854c2.44634,-8.19266 4.08911,-16.76863 8.75831,-23.96966c6.50853,-9.93095 14.28072,-18.56194 22.04526,-27.53091c5.43898,-6.28267 10.58619,-13.2065 16.49633,-19.04359c0.55612,-0.54925 1.11755,-1.09433 1.68385,-1.63558c-0.05595,-0.09651 -0.11068,-0.19317 -0.16417,-0.28987c-0.71988,-1.30132 -0.15482,-2.9707 -0.19038,-4.45745c-0.13553,-5.66596 0.18854,-11.24233 0.60075,-16.88724c0.24154,-3.3077 -0.17548,-6.63955 0.03351,-9.94946c0.19996,-3.16682 0.77485,-6.37085 1.53813,-9.5569c-0.22715,0.19914 -0.45255,0.40078 -0.67598,0.60525c-7.07782,6.46914 -13.9774,13.66598 -21.95544,19.0514c-3.51918,2.37555 -7.23757,4.20711 -10.74448,6.63546c-8.15292,5.64545 -16.74135,12.17037 -26.28813,15.16946c-1.60786,0.5051 -3.2638,0.8436 -4.88358,1.30901c-6.14252,1.76493 -15.82378,5.70614 -21.0967,-0.52737c-1.30484,-1.54255 -1.10812,-3.88591 -1.66218,-5.82887c-1.75762,-7.68687 1.47151,-16.44191 2.98898,-24.12871c1.64611,-8.33846 5.53181,-16.01814 8.79118,-23.85092c2.40375,-5.77658 4.43153,-11.97582 7.30327,-17.53346c5.34896,-10.35179 12.17967,-20.16099 18.26397,-30.09632c10.15991,-16.59059 20.76376,-33.37926 32.77629,-48.71436c8.64421,-11.03513 18.55469,-21.31978 28.0353,-31.6563c-1.60889,0.69382 -3.25527,1.35717 -4.96332,1.9948c-1.72317,0.64327 -3.36803,1.58084 -5.17844,1.90565c-6.4813,1.16285 -13.65376,-1.56804 -19.51764,-3.94364c-2.01716,-0.8172 -4.48752,-1.0565 -5.96538,-2.6542c-0.9188,-0.99329 -0.26907,-2.69951 -0.23806,-4.05223c0.04312,-1.88125 0.3066,-3.75098 0.4599,-5.62646c4.40769,-6.87638 9.15982,-13.47004 13.92653,-20.09973c2.29082,-3.18614 4.96599,-7.58965 7.70395,-10.38977c2.05727,-2.10398 4.88411,-3.29696 7.17023,-5.14972c2.30682,-1.86953 4.76687,-4.77413 7.08104,-6.56202c2.36105,-1.82412 5.19051,-2.95495 7.66701,-4.61894c0.78248,-0.52576 7.43345,-5.63713 8.08943,-6.04189c0.12543,-0.0774 8.88399,-4.45176 9.13986,-4.57965c0,0 2.23621,-1.11775 3.35396,1.11845c1.11776,2.23621 -1.11845,3.35397 -1.11845,3.35397c-2.91511,1.45711 -5.97629,2.65105 -8.7498,4.36239c-2.80934,1.73346 -5.18641,4.09585 -7.92644,5.93691c-2.40338,1.61486 -5.16256,2.69129 -7.45096,4.46532c-2.49144,1.93142 -4.47683,4.45488 -6.92552,6.44022c-2.17066,1.75991 -4.89211,2.84501 -6.83669,4.85189c-2.53366,2.61484 -5.02575,6.79376 -7.13796,9.73163c-4.47666,6.2266 -8.83976,12.51916 -13.25171,18.78869c-0.06848,1.45046 0.00468,2.91459 -0.20544,4.35138c-0.05445,0.3723 -0.89921,0.78476 -0.57312,0.97248c1.01895,0.58658 2.32969,0.36268 3.45923,0.68898c5.46619,1.57906 11.12545,4.82267 17.07981,3.715c1.46901,-0.27327 2.77782,-1.10214 4.17192,-1.63989c5.61589,-2.16627 10.5301,-4.49377 15.71293,-7.35431c11.2126,-12.80069 22.13111,-25.98571 34.27789,-37.83157c4.30086,-4.19431 9.27318,-7.7277 13.49962,-11.99523c4.28583,-4.32749 8.37848,-8.70775 12.82642,-12.89272c5.66063,-5.32597 11.04371,-11.1256 16.85282,-16.2709c7.17486,-6.35499 15.11089,-12.05218 22.56623,-18.08553c6.47766,-5.24215 12.83321,-10.9089 19.62247,-15.73925c6.42482,-4.57107 13.45607,-8.44479 20.10126,-12.69848c3.42885,-2.19485 6.37134,-3.99964 9.90593,-5.71109zM39.49564,6.96162c-4.23559,4.27014 -9.20725,7.80962 -13.51347,12.00881c-7.89567,7.69942 -15.26881,15.97053 -22.54254,24.33234c0.81139,-0.57993 1.62409,-1.16152 2.44053,-1.74258c2.21004,-1.57292 4.71275,-2.79473 6.64294,-4.7007c3.2922,-3.25089 6.24085,-7.09224 9.46263,-10.46159c3.58727,-3.2891 7.67985,-6.44447 10.96311,-10.03507c3.32516,-3.63641 5.87194,-8.05273 9.03355,-11.83538c0.19035,-0.22774 0.38072,-0.4554 0.57112,-0.68296c-1.01266,1.03995 -2.02929,2.08018 -3.05787,3.11715zM-16.32193,65.8102c-9.62182,10.52053 -19.74871,20.9618 -28.54377,32.1895c-11.89435,15.18424 -22.38826,31.81453 -32.44845,48.24227c-6.01314,9.81912 -12.76977,19.51228 -18.06432,29.73812c-2.8187,5.444 -4.79469,11.53973 -7.15061,17.20137c-3.12166,7.50182 -6.94522,14.90602 -8.50095,22.89234c-1.2975,6.66069 -4.78148,15.39032 -3.03777,21.98209c0.23544,1.29553 -0.06667,2.82062 0.70634,3.88658c1.25853,1.73549 4.9486,1.44184 6.55746,1.23286c4.6868,-0.60879 9.53137,-2.26926 14.03263,-3.6613c9.03676,-2.79468 17.22678,-9.17799 24.93098,-14.50746c3.52036,-2.43526 7.2651,-4.28717 10.79251,-6.66828c7.76977,-5.24483 14.48726,-12.29826 21.37961,-18.59788c2.00496,-1.83039 4.16838,-3.43984 6.31806,-5.06025c0.56473,-1.85261 1.13936,-3.68207 1.68461,-5.47678c3.33427,-10.97491 7.21652,-22.10543 9.73765,-33.27519c1.39933,-2.97574 3.31631,-5.75118 4.24119,-8.90677c0.46356,-1.58163 0.00492,-3.38548 0.65197,-4.90132c0.42511,-0.99588 2.04259,-1.17997 2.38271,-2.20799c0.35344,-1.06826 -0.78017,-2.229 -0.55028,-3.33048c0.22277,-1.06734 1.25533,-1.78563 1.81354,-2.72224c1.38231,-2.31934 2.67829,-4.6964 3.81396,-7.14597c0.78104,-1.68467 0.46891,-3.69987 0.99079,-5.48194c1.83536,-6.26716 5.11181,-12.89478 7.69768,-18.91887c4.57595,-10.66021 10.06903,-20.91025 15.37274,-31.21684c5.75439,-12.48261 12.31633,-24.37432 18.77156,-36.45414c4.68361,-8.76454 10.79734,-16.74162 14.92004,-25.82734c2.33577,-5.14763 3.91274,-10.61905 6.10225,-15.82733c-4.18477,4.89961 -8.32778,9.80147 -12.46137,14.74704c-3.21166,3.84253 -5.80112,8.3077 -9.18004,12.00292c-3.34685,3.66014 -7.49503,6.88155 -11.15464,10.23327c-3.23835,3.39115 -6.21607,7.2918 -9.54651,10.54184c-2.09981,2.04912 -4.76786,3.42053 -7.15822,5.12178c-5.53617,3.94017 -10.91218,7.89108 -16.8293,11.23056c-0.18706,0.10557 -0.37372,0.21053 -0.56004,0.3149c-2.54821,2.90523 -5.11286,5.78905 -7.71199,8.63095zM128.63757,102.37408c-5.27332,5.88411 -11.11014,11.28814 -16.53571,17.03302c-10.64798,11.27465 -20.78404,22.77899 -31.90453,33.61079c-6.03263,5.86918 -12.9718,10.54672 -19.29826,16.07015c-3.66623,3.20087 -6.98439,6.82596 -10.56484,10.12316c-15.39354,14.17577 -31.83947,27.36398 -47.71156,41.00443c-3.10696,2.6701 -6.22839,5.3234 -9.35636,7.96906c-0.7081,1.66839 -1.42212,3.33951 -2.13434,5.02353c-0.70121,1.65799 -1.01763,3.50158 -1.97339,5.02707c-2.61488,4.17359 -6.94725,7.72721 -11.22958,9.92709c-2.17544,0.14881 -4.49416,1.23701 -6.52632,0.44643c-0.54535,-0.21215 -1.05978,-0.49826 -1.54239,-0.84008c-0.50006,0.45644 -0.99019,0.9196 -1.46751,1.39102c-5.81625,5.74435 -10.87652,12.5753 -16.22958,18.75872c-7.61801,8.79971 -15.25933,17.25772 -21.64358,26.99905c-3.6244,5.46262 -4.85,11.61051 -6.71866,17.86855c-1.82339,6.10642 -4.55492,12.53713 -5.64386,18.80826c-0.56243,3.23904 -0.80991,6.58562 1.66498,8.75335c0.37407,0.32765 0.61379,0.92701 1.1054,1.00182c2.24066,0.34096 6.33375,-0.954 8.25088,-1.42104c10.83136,-2.6387 19.11388,-12.04708 27.5454,-19.01277c4.9487,-3.95702 10.04663,-8.00196 14.60701,-12.40596c7.12984,-6.88536 12.4764,-15.54968 19.03201,-22.95613c11.48554,-12.97622 24.11165,-25.04521 36.41047,-37.2527c16.22294,-14.27829 32.32743,-28.80168 47.76249,-43.93597c9.04783,-8.87152 17.44513,-18.33074 26.96599,-26.70756c3.94298,-3.46919 7.84811,-6.98049 11.72587,-10.52237c0.90879,-1.89964 1.81085,-3.80208 2.69172,-5.71233c2.53427,-5.49583 3.94692,-11.59168 6.71247,-16.97316c0.75665,-1.47236 1.96557,-2.6835 2.70699,-4.16359c2.04971,-4.09179 3.16179,-9.13246 4.60703,-13.46215c1.64057,-3.94212 3.59899,-7.87234 4.97048,-11.91157c0.46376,-1.36584 0.49608,-2.87008 1.07283,-4.19218c0.62875,-1.44132 1.84041,-2.57296 2.50088,-4.00002c2.75788,-5.95896 2.64146,-12.90331 3.07241,-19.38956c-4.29605,5.02604 -8.51089,10.11845 -12.92482,15.04362zM-20.28938,239.6154c-1.71192,1.44517 -3.51193,2.85739 -5.29387,4.29424c0.69592,-0.14091 1.40173,-0.43426 2.09553,-0.54235c3.55065,-1.84653 5.86765,-4.49916 7.69457,-7.54263c-1.49928,1.26298 -2.99831,2.52623 -4.49622,3.79074zM256.80647,43.85229c6.32436,-5.29657 13.11365,-10.27974 19.18721,-15.84945c3.64614,-3.34367 6.82474,-7.25268 10.34184,-10.73336c0.44244,-0.43786 0.89085,-0.87172 1.34339,-1.30299c-6.7912,5.02447 -13.61661,9.99497 -19.90959,15.68493c-5.98698,5.41155 -11.61019,11.2009 -17.04175,17.17745c2.04438,-1.63822 4.0719,-3.29573 6.07891,-4.97657zM210.34117,85.20043c-6.49091,4.89982 -13.76692,9.44391 -19.77639,14.91537c-3.23494,2.94532 -6.03417,6.62167 -8.99248,9.85458c-8.60734,7.77889 -17.36171,15.42064 -25.84494,23.33433c-12.9325,12.06426 -25.39043,24.56326 -38.29153,36.6227c-1.59211,3.32351 -3.20042,6.6403 -4.74783,9.97481c-3.13002,6.74486 -7.11379,13.11469 -10.7545,19.56534c-3.23293,5.72815 -5.92303,11.85327 -8.86592,17.73709c-3.22209,6.6421 -6.6076,13.15351 -10.15738,19.57751c1.76026,-1.76167 3.52776,-3.51708 5.1636,-5.38282c5.48324,-6.25384 10.2713,-13.11843 15.68799,-19.43081c8.6822,-10.11787 17.98701,-19.75701 26.88673,-29.68805c6.6735,-7.44683 12.92725,-15.23194 19.52366,-22.74076c6.57832,-7.48822 13.45744,-14.72115 19.78108,-22.43658c9.53492,-11.63348 18.55014,-23.70803 28.04238,-35.38496c7.06476,-6.68651 13.18333,-14.30258 19.39934,-21.77576c-2.36143,1.74177 -4.71464,3.49223 -7.05382,5.25802zM-0.63621,216.42357c15.8374,-13.61063 32.25415,-26.7664 47.61034,-40.91504c3.60169,-3.31847 6.942,-6.96094 10.63077,-10.18194c6.25773,-5.46419 13.14448,-10.07882 19.1037,-15.89043c11.06538,-10.77811 21.14806,-22.22517 31.74237,-33.44534c5.40595,-5.7253 11.22669,-11.10827 16.48019,-16.97272c6.01511,-6.71464 11.6631,-13.73747 17.64982,-20.48072c0.69341,-4.57725 1.55249,-9.15067 2.23748,-13.69412c1.50444,-9.97872 1.19411,-20.16193 1.66682,-30.20149c-2.50116,-2.50013 -2.84026,-1.11558 -6.42739,-1.46829c-0.66481,-0.06536 -1.28903,-0.63861 -1.94168,-0.49611c-3.86214,0.84324 -7.36714,5.57984 -10.06459,8.27646c-6.86257,6.86045 -14.93855,13.11848 -21.067,20.65562c-1.06273,1.307 -1.72109,2.91481 -2.80855,4.20131c-2.04841,2.42332 -4.95376,4.03086 -6.97972,6.47297c-0.98381,1.18588 -1.53567,2.67867 -2.44133,3.92525c-1.55379,2.13868 -3.57868,3.89177 -5.37203,5.83396c-6.583,7.12938 -13.61138,14.13562 -19.67428,21.71452c-3.09712,3.87154 -5.59812,8.22647 -8.63016,12.15025c-4.06996,5.26695 -8.77147,10.04544 -12.84497,15.3093c-7.77835,10.05136 -14.79709,21.06849 -21.29274,31.9737c-7.4044,12.42868 -16.45599,24.1696 -22.965,37.10865c-2.31407,4.60007 -3.72515,10.02814 -5.48799,14.87437c-0.35754,0.98291 -0.7235,1.95818 -1.09645,2.92772c0.66117,-0.55705 1.31884,-1.1162 1.97242,-1.67789zM166.29365,50.45914c14.15771,-17.52385 28.00773,-34.86136 39.15869,-54.52208c2.07021,-3.64931 4.73479,-7.54358 6.18485,-11.4729c2.18152,-5.91137 2.60974,-12.09711 2.69035,-18.27068c0.04284,-3.28093 -0.54986,-8.3786 -4.67997,-9.56997c-1.32465,-0.38211 -2.73672,0.35024 -4.11235,0.44152c-2.92087,0.19383 -5.84904,0.4115 -8.73624,0.89439c-3.1114,0.52039 -6.41651,0.32399 -9.34456,1.49793c-2.92804,1.17395 -5.18316,3.59756 -7.79119,5.37232c-4.00773,2.72727 -7.88676,5.36785 -11.62921,8.45225c-17.15175,14.12061 -34.44443,28.366 -49.80224,44.48207c-8.03078,8.42729 -15.67603,17.26222 -23.50275,25.88001c-2.94729,3.14473 -6.37631,6.1905 -9.01195,9.60407c-8.79525,11.39123 -16.64181,24.1415 -24.35786,36.2912c-8.04173,12.66252 -14.96645,25.84127 -24.5221,37.44c-12.34068,15.88261 -24.9964,31.23123 -38.33721,46.2841c-6.19835,6.9938 -12.30457,14.68714 -19.25992,20.92569c-1.37425,1.23262 -2.8213,2.36682 -4.28615,3.47918c-1.4901,4.94877 -2.8226,10.05107 -3.12048,15.0219c-0.19946,3.32844 0.20181,6.67732 -0.03711,10.00316c-0.39799,5.54026 -0.41312,10.98311 -0.58769,16.52608c-0.0053,0.16835 -0.01767,0.33697 -0.03379,0.50507c5.91365,-5.25357 12.19518,-10.20838 18.38354,-15.19612c3.61452,-8.64537 5.73316,-18.05591 9.91462,-26.40251c6.55382,-13.08204 15.69513,-24.93877 23.17218,-37.49382c6.59292,-11.06851 13.72125,-22.24187 21.61276,-32.44716c4.0782,-5.27392 8.78802,-10.05935 12.86424,-15.3344c3.04926,-3.94606 5.56602,-8.32091 8.68116,-12.21512c6.13733,-7.67222 13.24245,-14.76752 19.90621,-21.98435c2.97961,-3.22691 4.87299,-6.25141 7.63273,-9.55247c2.05079,-2.45306 4.97238,-4.07936 7.02694,-6.52926c1.05948,-1.26335 1.69657,-2.84145 2.73954,-4.11846c6.26095,-7.66589 14.41672,-14.04381 21.40793,-21.03302c3.62632,-3.62528 7.63239,-8.48103 12.86602,-9.68629c1.03142,-0.23753 2.0859,0.38262 3.1412,0.46376c0.91815,0.0706 5.62407,-0.16998 6.22622,0.17936c1.77534,1.02995 2.903,2.90228 4.35449,4.35342c0.34724,10.86531 0.27668,22.02768 -1.33444,32.80897c-0.3005,2.01087 -0.63742,4.02699 -0.97981,6.04644c6.0208,-6.89505 11.72528,-13.97242 17.50334,-21.12428zM386.43489,12.88249c-1.79688,1.75602 -3.52371,3.55549 -5.1277,5.42246c-2.09091,2.43371 -3.46044,5.41676 -5.44828,7.93536c-5.03926,6.38475 -11.23689,11.928 -16.56706,18.07455c-8.47769,9.77615 -16.25502,20.03916 -24.95574,29.6464c-7.7477,8.55413 -15.62946,17.28218 -22.77186,26.35018c-0.50898,0.6462 -5.46398,7.63781 -5.89942,8.16013c-3.20499,3.84448 -7.04975,7.25659 -10.46131,10.92073c-9.68032,10.39705 -19.07007,21.23512 -28.2211,32.09932c-8.94076,10.59598 -20.0219,19.62613 -30.0637,29.1868c-13.53832,12.88966 -26.67601,26.18316 -40.75569,38.48149c-15.04867,13.14472 -30.1625,26.20712 -44.87935,39.72449c-6.04714,5.55427 -12.63367,10.848 -18.29229,16.79368c-4.51757,4.74674 -8.48258,10.21412 -12.67263,15.25511c-4.23779,5.09648 -8.10673,10.45844 -12.05997,15.77738c-2.87294,3.86543 -6.32912,7.7137 -8.81272,11.83747c-2.48361,4.12376 -4.26889,8.97835 -6.34209,13.32545c-2.7622,5.79179 -6.41295,11.73055 -8.50241,17.79082c-1.0563,3.06369 -1.38773,6.33108 -2.0968,9.49323c-1.04841,4.67546 -2.69936,9.60554 -3.25978,14.36149c-0.35146,2.98266 0.01197,6.00659 0.00619,9.00987c0.73007,4.11918 1.56383,8.2431 2.15834,12.38337c0.18473,1.28649 -0.08287,2.67461 0.40927,3.87751c0.18665,0.45622 0.89511,0.4806 1.38697,0.51291c1.46062,0.09593 2.92571,-0.10869 4.38927,-0.13355c1.51439,-0.02572 3.05955,0.28365 4.54378,-0.01817c1.57194,-0.31966 2.92577,-1.3376 4.45802,-1.81236c0.91519,-0.28357 1.93367,-0.13531 2.83912,-0.44862c4.78381,-1.65528 9.22809,-5.8279 13.19196,-8.839c2.60121,-1.97598 5.49294,-3.56804 7.99065,-5.67334c2.10122,-1.77111 3.48818,-4.249 5.30842,-6.30782c3.8933,-4.40361 7.92168,-8.63355 11.7266,-13.1288c21.56111,-25.47055 42.83484,-51.16901 65.47271,-75.7557c7.53625,-9.05356 16.44678,-16.4782 24.35657,-25.1426c2.15166,-2.35693 3.89648,-5.05944 5.9805,-7.47638c12.02444,-13.94538 26.07113,-26.56965 39.08993,-39.58439c6.65985,-6.64163 14.03985,-12.54358 20.70197,-19.25863c7.04483,-7.10079 13.6736,-14.60595 20.74914,-21.67955c10.05419,-10.05141 20.21424,-19.78681 28.43809,-31.4094c5.04369,-5.51745 10.11248,-11.18443 14.38558,-17.33919c4.43655,-6.39016 7.98453,-13.6447 11.9158,-20.36092c4.77473,-8.1572 9.4106,-16.20852 13.03132,-24.95935c3.03407,-7.33298 7.06354,-14.62952 8.08373,-22.51614c0.66467,-4.95562 1.32934,-9.91125 1.99401,-14.86687c0.42746,-3.18697 1.33472,-6.34216 1.30725,-9.55756c-0.02747,-3.2154 -1.01275,-6.35103 -1.47035,-9.53382c-0.20901,-1.45377 -0.1356,-2.96969 -0.58929,-4.36658c-0.23837,-0.73394 -0.96112,-1.20791 -1.42219,-1.82671c-1.09263,-1.46644 -2.16944,-2.94455 -3.24344,-4.42473z" fill="#c47474" stroke-width="0.5"/><path d="M389.70987,17.26842c0.46107,0.6188 1.18417,1.09305 1.42254,1.827c0.45369,1.39689 0.38079,2.91324 0.5898,4.36701c0.4576,3.18279 1.44405,6.31946 1.47152,9.53486c0.02747,3.2154 -0.87891,6.3714 -1.30637,9.55838c-0.66467,4.95562 -1.32788,9.9127 -1.99255,14.86833c-1.02019,7.88662 -5.0478,15.18518 -8.08187,22.51817c-3.62072,8.75084 -8.25463,16.80457 -13.02936,24.96176c-3.93127,6.71622 -7.47746,13.97328 -11.914,20.36343c-4.27311,6.15476 -9.34051,11.82393 -14.3842,17.34138c-8.22385,11.62259 -18.3806,21.36458 -28.43479,31.416c-7.07554,7.0736 -13.70136,14.58885 -20.74619,21.68964c-6.66213,6.71505 -14.04274,12.63778 -20.70259,19.27941c-13.0188,13.01475 -27.11682,25.6771 -39.14125,39.62248c-2.08401,2.41694 -3.83373,5.11894 -5.98539,7.47587c-7.90979,8.6644 -16.83153,16.08593 -24.36778,25.13949c-22.63787,24.58669 -43.91934,50.28119 -65.48045,75.75174c-3.80491,4.49525 -7.83391,8.7248 -11.72721,13.12841c-1.82023,2.05882 -3.20739,4.53658 -5.30862,6.30769c-2.4977,2.1053 -5.39012,3.6969 -7.99133,5.67288c-3.96386,3.01111 -8.40919,7.183 -13.19299,8.83828c-0.90545,0.3133 -1.92428,0.1648 -2.83947,0.44836c-1.53225,0.47476 -2.8865,1.49239 -4.45844,1.81205c-1.48423,0.30182 -3.02999,-0.008 -4.54437,0.01772c-1.46355,0.02486 -2.92919,0.22905 -4.38981,0.13312c-0.49187,-0.03231 -1.20055,-0.05687 -1.3872,-0.51309c-0.49214,-1.2029 -0.22498,-2.59137 -0.40971,-3.87786c-0.59452,-4.14026 -1.42981,-8.2655 -2.15988,-12.38468c0.00579,-3.00329 -0.3586,-6.0281 -0.00715,-9.01075c0.56042,-4.75595 2.21014,-9.68722 3.25855,-14.36268c0.70907,-3.16215 1.03962,-6.43044 2.09592,-9.49414c2.08946,-6.06027 5.73896,-12.00041 8.50116,-17.79219c2.07321,-4.3471 3.85742,-9.20293 6.34103,-13.3267c2.48361,-4.12376 5.9391,-7.97288 8.81204,-11.83831c3.95324,-5.31894 7.82114,-10.68227 12.05893,-15.77875c4.19004,-5.04099 8.15394,-10.50995 12.67152,-15.25669c5.65863,-5.94568 12.24415,-11.24096 18.29129,-16.79523c14.71686,-13.51737 29.82561,-26.59065 44.87428,-39.73537c14.07968,-12.29833 27.26645,-25.65734 40.80478,-38.54699c10.0418,-9.56066 21.14598,-18.58438 30.08674,-29.18035c9.15103,-10.86419 18.54433,-21.70006 28.22466,-32.09711c3.41156,-3.66414 7.25717,-7.07565 10.46216,-10.92013c0.43544,-0.52232 5.39046,-7.51392 5.89944,-8.16012c7.1424,-9.068 15.02495,-17.79547 22.77266,-26.3496c8.70072,-9.60724 16.47851,-19.8699 24.9562,-29.64605c5.33017,-6.14655 11.52819,-11.68951 16.56745,-18.07425c1.98784,-2.5186 3.35728,-5.50172 5.44819,-7.93543c1.60399,-1.86697 3.33093,-3.66634 5.12781,-5.42237c1.074,1.48018 2.15165,2.95896 3.24429,4.4254z" data-paper-data="{&quot;noHover&quot;:false,&quot;origItem&quot;:[&quot;Path&quot;,{&quot;applyMatrix&quot;:true,&quot;segments&quot;:[[[386.43489,12.88249],[1.074,1.48018],[-1.79688,1.75602]],[[381.30719,18.30495],[1.60399,-1.86697],[-2.09091,2.43371]],[[375.85891,26.24031],[1.98784,-2.5186],[-5.03926,6.38475]],[[359.29185,44.31486],[5.33017,-6.14655],[-8.47769,9.77615]],[[334.33612,73.96125],[8.70072,-9.60724],[-7.7477,8.55413]],[[311.56426,100.31144],[7.1424,-9.068],[-0.50898,0.6462]],[[305.66484,108.47157],[0.43544,-0.52232],[-3.20499,3.84448]],[[295.20353,119.3923],[3.41156,-3.66414],[-9.68032,10.39705]],[[266.98242,151.49162],[9.15103,-10.86419],[-8.94076,10.59598]],[[236.91872,180.67841],[10.0418,-9.56066],[-13.53832,12.88966]],[[196.16303,219.1599],[14.07968,-12.29833],[-15.04867,13.14472]],[[151.28367,258.88439],[14.71686,-13.51737],[-6.04714,5.55427]],[[132.99138,275.67806],[5.65863,-5.94568],[-4.51757,4.74674]],[[120.31875,290.93317],[4.19004,-5.04099],[-4.23779,5.09648]],[[108.25878,306.71055],[3.95324,-5.31894],[-2.87294,3.86543]],[[99.44606,318.54802],[2.48361,-4.12376],[-2.48361,4.12376]],[[93.10396,331.87346],[2.07321,-4.3471],[-2.7622,5.79179]],[[84.60155,349.66428],[2.08946,-6.06027],[-1.0563,3.06369]],[[82.50475,359.15752],[0.70907,-3.16215],[-1.04841,4.67546]],[[79.24497,373.51901],[0.56042,-4.75595],[-0.35146,2.98266]],[[79.25116,382.52888],[0.00579,-3.00329],[0.73007,4.11918]],[[81.4095,394.91225],[-0.59452,-4.14026],[0.18473,1.28649]],[[81.81877,398.78975],[-0.49214,-1.2029],[0.18665,0.45622]],[[83.20574,399.30266],[-0.49187,-0.03231],[1.46062,0.09593]],[[87.59501,399.16912],[-1.46355,0.02486],[1.51439,-0.02572]],[[92.13879,399.15095],[-1.48423,0.30182],[1.57194,-0.31966]],[[96.59681,397.33859],[-1.53225,0.47476],[0.91519,-0.28357]],[[99.43593,396.88997],[-0.90545,0.3133],[4.78381,-1.65528]],[[112.62789,388.05097],[-3.96386,3.01111],[2.60121,-1.97598]],[[120.61854,382.37763],[-2.4977,2.1053],[2.10122,-1.77111]],[[125.92695,376.06981],[-1.82023,2.05882],[3.8933,-4.40361]],[[137.65355,362.94101],[-3.80491,4.49525],[21.56111,-25.47055]],[[203.12626,287.18531],[-22.63787,24.58669],[7.53625,-9.05356]],[[227.48283,262.04271],[-7.90979,8.6644],[2.15166,-2.35693]],[[233.46332,254.56633],[-2.08401,2.41694],[12.02444,-13.94538]],[[272.55325,214.98194],[-13.0188,13.01475],[6.65985,-6.64163]],[[293.25522,195.72331],[-6.66213,6.71505],[7.04483,-7.10079]],[[314.00437,174.04376],[-7.07554,7.0736],[10.05419,-10.05141]],[[342.44246,142.63436],[-8.22385,11.62259],[5.04369,-5.51745]],[[356.82804,125.29517],[-4.27311,6.15476],[4.43655,-6.39016]],[[368.74384,104.93425],[-3.93127,6.71622],[4.77473,-8.1572]],[[381.77516,79.9749],[-3.62072,8.75084],[3.03407,-7.33298]],[[389.85888,57.45875],[-1.02019,7.88663],[0.66467,-4.95562]],[[391.8529,42.59188],[-0.66467,4.95562],[0.42746,-3.18697]],[[393.16015,33.03432],[0.02747,3.2154],[-0.02747,-3.2154]],[[391.6898,23.5005],[0.4576,3.18279],[-0.20901,-1.45377]],[[391.10051,19.13392],[0.45369,1.39689],[-0.23837,-0.73394]],[[389.67833,17.30722],[0.46107,0.6188],[-1.09263,-1.46644]]],&quot;closed&quot;:true}]}" fill="#7c4949" stroke-width="0.5"/><path d="M217.42755,79.90446c-6.216,7.47318 -12.39938,15.1654 -19.46415,21.85191c-9.49224,11.67693 -18.44112,23.67669 -27.97604,35.31018c-6.32365,7.71543 -13.23602,15.03494 -19.81433,22.52317c-6.59641,7.50882 -12.8826,15.28268 -19.55609,22.72952c-8.89972,9.93104 -18.14021,19.49362 -26.82241,29.61149c-5.41669,6.31238 -10.20508,13.17668 -15.68833,19.43052c-1.63584,1.86574 -3.46828,3.6972 -5.22853,5.45888c3.54979,-6.424 6.93303,-12.93748 10.15512,-19.57958c2.94288,-5.88382 5.62975,-12.01238 8.86268,-17.74053c3.64071,-6.45065 7.61918,-12.82801 10.7492,-19.57286c1.54742,-3.33451 3.15193,-6.65955 4.74404,-9.98306c12.90111,-12.05945 25.41703,-24.62392 38.34953,-36.68817c8.48323,-7.9137 17.25397,-15.54857 25.86131,-23.32746c2.95831,-3.23291 5.75882,-6.90839 8.99375,-9.85372c6.00947,-5.47146 13.28874,-10.01309 19.77965,-14.91291c2.33918,-1.76579 4.69318,-3.51559 7.05461,-5.25736z" data-paper-data="{&quot;noHover&quot;:false,&quot;origItem&quot;:[&quot;Path&quot;,{&quot;applyMatrix&quot;:true,&quot;segments&quot;:[[[420.68234,170.40085],[4.67837,-3.53158],[-12.98182,9.79963]],[[381.12957,200.2316],[12.01894,-10.94293],[-6.46987,5.89065]],[[363.14462,219.94075],[5.91662,-6.46582],[-17.21468,15.55777]],[[311.45474,266.60941],[16.96645,-15.82739],[-25.865,24.12852]],[[234.87168,339.85482],[25.80221,-24.1189],[-3.18421,6.64703]],[[225.37601,359.80443],[3.09483,-6.66902],[-6.26004,13.48971]],[[203.86702,398.93511],[7.28142,-12.9013],[-6.46587,11.45631]],[[186.13519,434.40929],[5.88576,-11.76764],[-6.44418,13.28421]],[[165.82042,473.56431],[7.09957,-12.848],[3.52051,-3.52335]],[[176.14762,462.79867],[-3.27168,3.73147],[10.96649,-12.50768]],[[207.5236,423.93705],[-10.83337,12.62476],[17.36439,-20.23574]],[[261.29706,364.56095],[-17.79944,19.86208],[13.34699,-14.89367]],[[300.34438,319.07942],[-13.19282,15.01764],[13.15663,-14.97644]],[[339.90655,274.20626],[-12.6473,15.43086],[19.06985,-23.26696]],[[395.99132,203.43634],[-18.98448,23.35386],[14.12953,-13.37302]],[[434.78999,159.88482],[-12.43201,14.94636],[-4.72286,3.48354]]],&quot;closed&quot;:true}]}" fill="#7c4949" stroke-width="0.5"/><path d="M141.59544,87.29293c-0.43095,6.48625 -0.31203,13.43295 -3.06991,19.39191c-0.66046,1.42706 -1.87187,2.55897 -2.50062,4.00029c-0.57674,1.3221 -0.60852,2.8269 -1.07228,4.19275c-1.37149,4.03923 -3.32859,7.9709 -4.96916,11.91302c-1.44525,4.32968 -2.55545,9.37263 -4.60516,13.46442c-0.74143,1.48009 -1.94993,2.69178 -2.70658,4.16414c-2.76555,5.38148 -4.17555,11.48122 -6.70982,16.97706c-0.88087,1.91026 -1.78202,3.81424 -2.6908,5.71388c-3.87776,3.54188 -7.78188,7.05505 -11.72487,10.52423c-9.52086,8.37681 -17.91388,17.8479 -26.96171,26.71943c-15.43505,15.13429 -31.5926,29.71837 -47.81554,43.99667c-12.29882,12.20749 -24.94484,24.27044 -36.43037,37.24665c-6.55561,7.40645 -11.90434,16.0695 -19.03418,22.95486c-4.56038,4.404 -9.66022,8.4477 -14.60892,12.40471c-8.43152,6.96569 -16.71704,16.37185 -27.5484,19.01056c-1.91713,0.46704 -6.0115,1.76094 -8.25216,1.41998c-0.49161,-0.07481 -0.73167,-0.67446 -1.10574,-1.0021c-2.47489,-2.16773 -2.22901,-5.51578 -1.66658,-8.75482c1.08893,-6.27113 3.81831,-12.70403 5.64169,-18.81045c1.86866,-6.25804 3.09207,-12.40844 6.71647,-17.87106c6.38425,-9.74133 14.02325,-18.20245 21.64126,-27.00215c5.35307,-6.18342 10.41098,-13.01811 16.22723,-18.76246c0.47733,-0.47143 1.05459,-0.98365 1.55465,-1.44009c0.48261,0.34183 0.9965,0.62698 1.54184,0.83913c2.03216,0.79057 4.34964,-0.29963 6.52508,-0.44844c4.28232,-2.19988 8.52975,-5.70078 11.14464,-9.87437c0.95577,-1.5255 1.27035,-3.3725 1.97156,-5.0305c0.71222,-1.68402 1.42441,-3.35936 2.13251,-5.02775c3.12798,-2.64566 6.24728,-5.30614 9.35424,-7.97624c15.8721,-13.64045 32.39223,-26.88234 47.78577,-41.05811c3.58045,-3.2972 6.90166,-6.92034 10.56789,-10.12121c6.32646,-5.52343 13.26902,-10.1984 19.30166,-16.06759c11.12049,-10.83179 21.25755,-22.3353 31.90552,-33.60994c5.42557,-5.74488 11.26272,-11.14862 16.53604,-17.03274c4.41393,-4.92517 8.6287,-10.01764 12.92476,-15.04368z" data-paper-data="{&quot;noHover&quot;:false,&quot;origItem&quot;:[&quot;Path&quot;,{&quot;applyMatrix&quot;:true,&quot;segments&quot;:[[[257.27514,204.74815],[8.82785,-9.85035],[-10.54665,11.76823]],[[224.20373,238.8142],[10.85114,-11.48977],[-21.29595,22.54929]],[[160.39467,306.03577],[22.24098,-21.66358],[-12.06527,11.73837]],[[121.79815,338.17607],[12.65291,-11.04686],[-7.33246,6.40174]],[[100.66848,358.42239],[7.1609,-6.59441],[-30.78708,28.35153]],[[5.24535,440.43125],[31.74419,-27.2809],[-6.21393,5.34019]],[[-13.46738,456.36937],[6.25595,-5.29132],[-1.4162,3.33677]],[[-17.73606,466.41643],[1.42443,-3.36804],[-1.40242,3.31599]],[[-21.68285,476.47058],[1.91154,-3.05099],[-5.22977,8.34718]],[[-44.142,496.32476],[8.56464,-4.39976],[-4.35088,0.29762]],[[-57.19465,497.21763],[4.06433,1.58115],[-1.09069,-0.42431]],[[-60.27944,495.53746],[0.96522,0.68365],[-1.00013,0.91288]],[[-63.21447,498.31951],[0.95466,-0.94285],[-11.6325,11.4887]],[[-95.67363,535.83696],[10.70613,-12.36685],[-15.23602,17.59941]],[[-138.96079,589.83506],[12.7685,-19.48265],[-7.2488,10.92524]],[[-152.39811,625.57216],[3.73732,-12.51608],[-3.64677,12.21284]],[[-163.68582,663.18868],[2.17786,-12.54226],[-1.12487,6.47809]],[[-160.35586,680.69539],[-4.94977,-4.33546],[0.74814,0.65529]],[[-158.14506,682.69902],[-0.98323,-0.14962],[4.48132,0.68193]],[[-141.6433,679.85693],[-3.83426,0.93409],[21.66271,-5.2774]],[[-86.5525,641.83139],[-16.86304,13.93139],[9.89739,-7.91403]],[[-57.33848,617.01948],[-9.12076,8.808],[14.25968,-13.77071]],[[-19.27445,571.10723],[-13.11122,14.81289],[22.97107,-25.95243]],[[53.54648,496.60183],[-24.59764,24.41497],[32.44588,-28.55659]],[[149.07145,408.72989],[-30.8701,30.26857],[18.09566,-17.74305]],[[203.00342,355.31478],[-19.04172,16.75363],[7.88597,-6.93837]],[[226.45515,334.27003],[-7.75552,7.08376],[1.81758,-3.79929]],[[231.83859,322.84536],[-1.76174,3.82052],[5.06853,-10.99166]],[[245.26354,288.89904],[-5.5311,10.76296],[1.5133,-2.94472]],[[250.67753,280.57186],[-1.48285,2.96018],[4.09942,-8.18359]],[[259.8916,253.64757],[-2.8905,8.65936],[3.28113,-7.88424]],[[269.83255,229.82443],[-2.74297,8.07845],[0.92752,-2.73168]],[[271.97821,221.44007],[-1.15349,2.64421],[1.2575,-2.88264]],[[276.97996,213.44002],[-1.32093,2.85413],[5.51576,-11.91792]],[[283.12478,174.66091],[-0.8619,12.9725],[-8.59211,10.05207]]],&quot;closed&quot;:true}]}" fill="#7c4949" stroke-width="0.5"/><path d="M-2.63996,218.14043c0.37295,-0.96954 0.73858,-1.94508 1.09612,-2.92799c1.76285,-4.84623 3.17199,-10.27597 5.48606,-14.87603c6.50902,-12.93904 15.55593,-24.68483 22.96033,-37.11351c6.49565,-10.90521 13.50412,-21.94256 21.28247,-31.99391c4.0735,-5.26386 8.78588,-10.08718 12.85584,-15.35413c3.03205,-3.92378 5.5656,-8.29558 8.66272,-12.16712c6.0629,-7.5789 13.11508,-14.58178 19.69808,-21.71116c1.79335,-1.94219 3.82062,-3.69426 5.37441,-5.83294c0.90566,-1.24658 1.45796,-2.73916 2.44177,-3.92504c2.02596,-2.44211 4.93363,-4.04848 6.98204,-6.47179c1.08746,-1.2865 1.74611,-2.89415 2.80884,-4.20115c6.12845,-7.53714 14.20803,-13.79299 21.0706,-20.65344c2.69745,-2.69662 6.20382,-7.43228 10.06597,-8.27552c0.65265,-0.14249 1.27753,0.43123 1.94234,0.4966c3.58713,0.35271 3.92826,-1.03026 6.42942,1.46986c-0.47271,10.03956 -0.15566,20.22946 -1.6601,30.20818c-0.68499,4.54346 -1.54086,9.12119 -2.23427,13.69844c-5.98672,6.74325 -11.63162,13.77143 -17.64673,20.48608c-5.2535,5.86445 -11.07059,11.25724 -16.47653,16.98254c-10.59431,11.22017 -20.71569,22.72873 -31.78107,33.50684c-5.95921,5.8116 -12.87257,10.42426 -19.1303,15.88845c-3.68877,3.221 -7.03447,6.86117 -10.63617,10.17963c-15.35619,14.14864 -31.78183,27.29875 -47.61922,40.90938c-0.65358,0.56169 -1.31141,1.1207 -1.97258,1.67775z" data-paper-data="{&quot;noHover&quot;:false,&quot;origItem&quot;:[&quot;Path&quot;,{&quot;applyMatrix&quot;:true,&quot;segments&quot;:[[[-1.27242,432.84714],[-1.30716,1.12338],[31.67479,-27.22126]],[[93.94827,351.01706],[-30.71239,28.29728],[7.20339,-6.63694]],[[115.20981,330.65319],[-7.37754,6.442],[12.51546,-10.92838]],[[153.4172,298.87233],[-11.91843,11.62321],[22.13076,-21.55622]],[[216.90195,231.98164],[-21.18862,22.44034],[10.81189,-11.4506]],[[249.86233,198.0362],[-10.50699,11.7289],[12.03022,-13.42928]],[[285.16197,157.07477],[-11.97344,13.48649],[1.38683,-9.1545]],[[289.63694,129.68652],[-1.36999,9.08692],[3.00888,-19.95744]],[[292.97058,69.28354],[-0.94543,20.07911],[-5.00231,-5.00026]],[[280.1158,66.34697],[7.17426,0.70541],[-1.32962,-0.13073]],[[276.23245,65.35474],[1.30529,-0.28499],[-7.72429,1.68647]],[[256.10326,81.90766],[5.39491,-5.39324],[-13.72515,13.7209]],[[213.96925,123.21891],[12.2569,-15.07428],[-2.12546,2.61401]],[[208.35214,131.62152],[2.17493,-2.573],[-4.09682,4.84663]],[[194.3927,144.56747],[4.05192,-4.88422],[-1.96761,2.37177]],[[189.51003,152.41797],[1.81133,-2.49316],[-3.10758,4.27735]],[[178.76597,164.08589],[3.5867,-3.88438],[-13.16601,14.25876]],[[139.41741,207.51493],[12.1258,-15.1578],[-6.19424,7.74309]],[[122.15708,231.81543],[6.06409,-7.84756],[-8.13992,10.5339]],[[96.46713,262.43404],[8.147,-10.52773],[-15.55671,20.10271]],[[53.88164,326.38145],[12.9913,-21.81042],[-14.80879,24.85736]],[[7.95163,400.59874],[13.01803,-25.87809],[-4.62814,9.20013]],[[-3.02436,430.34748],[3.52569,-9.69246],[-0.71508,1.96582]],[[-5.21726,436.20292],[0.7459,-1.93907],[1.32234,-1.1141]]],&quot;closed&quot;:true}]}" fill="#7c4949" stroke-width="0.5"/><path d="M148.83549,71.56202c0.34239,-2.01944 0.59071,-3.98936 0.89121,-6.00022c1.61112,-10.78129 1.6918,-21.93117 1.34456,-32.79647c-1.45149,-1.45114 -2.57647,-3.32124 -4.35181,-4.35119c-0.60215,-0.34933 -5.30567,-0.10701 -6.22382,-0.1776c-1.0553,-0.08114 -2.10834,-0.70035 -3.13976,-0.46282c-5.23363,1.20526 -9.23612,6.06309 -12.86243,9.68837c-6.9912,6.98921 -15.13642,13.3712 -21.39738,21.0371c-1.04297,1.27701 -1.6779,2.85563 -2.73738,4.11898c-2.05456,2.4499 -4.96668,4.0773 -7.01748,6.53036c-2.75974,3.30106 -4.6351,6.32259 -7.61471,9.5495c-6.66375,7.21683 -13.7361,14.26046 -19.87343,21.93268c-3.11514,3.89421 -5.63548,8.25461 -8.68474,12.20067c-4.07622,5.27505 -8.78975,10.05325 -12.86794,15.32716c-7.89151,10.20529 -15.02502,21.37171 -21.61794,32.44023c-7.47705,12.55506 -16.62157,24.40849 -23.17539,37.49053c-4.18146,8.3466 -6.30259,17.75498 -9.9171,26.40034c-6.18837,4.98774 -12.53408,10.01923 -18.44773,15.2728c0.01612,-0.16809 0.02843,-0.33676 0.03373,-0.50512c0.17457,-5.54297 0.1875,-10.98785 0.58549,-16.5281c0.23891,-3.32584 -0.16381,-6.6762 0.03564,-10.00464c0.29788,-4.97083 1.62849,-10.07525 3.11858,-15.02402c1.46485,-1.11236 2.91193,-2.24653 4.28618,-3.47915c6.95535,-6.23855 13.06064,-13.93303 19.25899,-20.92683c13.34081,-15.05286 25.9912,-30.40972 38.33188,-46.29233c9.55564,-11.59873 16.47657,-24.8136 24.5183,-37.47612c7.71605,-12.1497 15.6031,-24.93618 24.39835,-36.32741c2.63564,-3.41357 6.07422,-6.4599 9.02151,-9.60464c7.82672,-8.6178 15.48526,-17.45043 23.51604,-25.87771c15.35781,-16.11607 32.66119,-30.35662 49.81294,-44.47722c3.74245,-3.0844 7.62296,-5.72404 11.6307,-8.45131c2.60802,-1.77477 4.86403,-4.19779 7.79208,-5.37174c2.92804,-1.17395 6.23476,-0.9764 9.34616,-1.49679c2.88719,-0.48289 5.81679,-0.69947 8.73766,-0.8933c1.37563,-0.09128 2.78832,-0.82312 4.11297,-0.44102c4.13011,1.19136 4.72485,6.29081 4.68201,9.57175c-0.08061,6.17358 -0.50657,12.36153 -2.68809,18.2729c-1.45006,3.92932 -4.11374,7.82456 -6.18395,11.47387c-11.15096,19.66072 -24.99606,37.00462 -39.15377,54.52847c-5.77807,7.15186 -11.47932,14.23502 -17.50012,21.13008z" data-paper-data="{&quot;noHover&quot;:false,&quot;origItem&quot;:[&quot;Path&quot;,{&quot;applyMatrix&quot;:true,&quot;segments&quot;:[[[332.58729,100.91828],[-11.55614,14.30372],[28.31542,-35.04769]],[[410.90467,-8.12588],[-22.30191,39.32143],[4.14042,-7.29862]],[[423.27438,-31.07167],[-2.90013,7.85863],[4.36304,-11.82275]],[[428.65507,-67.61304],[-0.16122,12.34715],[0.08568,-6.56187]],[[419.29513,-86.75297],[8.26022,2.38273],[-2.6493,-0.76421]],[[411.07043,-85.86993],[2.75127,-0.18257],[-5.84175,0.38766]],[[393.59795,-84.08115],[5.77439,-0.96578],[-6.2228,1.04078]],[[374.90884,-81.08528],[5.85609,-2.34789],[-5.85609,2.34789]],[[359.32647,-70.34063],[5.21605,-3.54954],[-8.01547,5.45455]],[[336.06805,-53.43613],[7.48489,-6.16881],[-34.30349,28.24121]],[[236.46358,35.52801],[30.71561,-32.23215],[-16.06156,16.85457]],[[189.45809,87.28804],[15.65344,-17.23559],[-5.89458,6.28946]],[[171.43419,106.49618],[5.27128,-6.82714],[-17.5905,22.78246]],[[122.71847,179.07857],[15.4321,-24.2994],[-16.08346,25.32504]],[[73.67427,253.95857],[19.11129,-23.19745],[-24.68136,31.76522]],[[-3.00015,346.52676],[26.68162,-30.10573],[-12.3967,13.9876]],[[-41.51999,388.37815],[13.9107,-12.4771],[-2.7485,2.46524]],[[-50.09229,395.33651],[2.92969,-2.22471],[-2.98019,9.89754]],[[-56.33324,425.38031],[0.59575,-9.94166],[-0.39891,6.65688]],[[-56.40746,445.38664],[0.47783,-6.65168],[-0.79598,11.08051]],[[-57.58284,478.43881],[0.34914,-11.08594],[-0.0106,0.33671]],[[-57.65041,479.44894],[0.03224,-0.33619],[11.8273,-10.50713]],[[-20.88333,449.0567],[-12.37673,9.97549],[7.22903,-17.29074]],[[-1.05409,396.25167],[-8.36293,16.6932],[13.10763,-26.16409]],[[45.29026,321.26402],[-14.9541,25.11011],[13.18584,-22.13702]],[[88.51579,256.36971],[-15.78303,20.41058],[8.15639,-10.54783]],[[114.24426,225.70091],[-8.15244,10.55011],[6.09852,-7.89212]],[[131.60657,201.27066],[-6.23027,7.78842],[12.27465,-15.34445]],[[171.41898,157.30196],[-13.3275,14.43365],[5.95921,-6.45381]],[[186.68444,138.19702],[-5.51947,6.60211],[4.10159,-4.90611]],[[200.73831,125.1385],[-4.10912,4.8998],[2.11896,-2.52669]],[[206.2174,116.90157],[-2.08594,2.55402],[12.52191,-15.33179]],[[249.03325,74.83554],[-13.98241,13.97842],[7.25263,-7.25055]],[[274.76529,55.46295],[-10.46726,2.41052],[2.06284,-0.47505]],[[281.04768,56.39048],[-2.1106,-0.16229],[1.8363,0.1412]],[[293.50012,56.74919],[-1.2043,-0.69867],[3.55069,2.0599]],[[302.2091,65.45603],[-2.90299,-2.90228],[0.69447,21.73061]],[[299.54022,131.07397],[3.22223,-21.56258],[-0.60099,4.02174]],[[297.5806,143.16684],[0.68478,-4.03888],[12.0416,-13.79011]]],&quot;closed&quot;:true}]}" fill="#7c4949" stroke-width="0.5"/><path d="M-8.59468,57.13164c0.18632,-0.10437 0.3733,-0.20923 0.56035,-0.3148c5.91713,-3.33948 11.30024,-7.28744 16.83641,-11.2276c2.39036,-1.70125 5.06042,-3.07159 7.16023,-5.12071c3.33044,-3.25004 6.30945,-7.14993 9.54781,-10.54108c3.6596,-3.35173 7.8093,-6.57217 11.15614,-10.23231c3.37893,-3.69522 5.96872,-8.16017 9.18038,-12.0027c4.13359,-4.94557 8.27719,-9.84704 12.46197,-14.74664c-2.18951,5.20828 -3.76529,10.68055 -6.10106,15.82818c-4.1227,9.08572 -10.23521,17.06374 -14.91882,25.82828c-6.45523,12.07982 -13.0128,23.97538 -18.76719,36.45799c-5.30371,10.30659 -10.78739,20.56953 -15.36334,31.22974c-2.58587,6.02409 -5.85732,12.6808 -7.69268,18.94795c-0.52189,1.78207 -0.21258,3.80853 -0.99363,5.4932c-1.13567,2.44957 -2.44006,4.841 -3.82237,7.16035c-0.55821,0.93661 -1.59528,1.65961 -1.81804,2.72695c-0.22989,1.10147 0.90121,2.26438 0.54777,3.33264c-0.34013,1.02802 -1.96227,1.21543 -2.38738,2.21131c-0.64705,1.51584 -0.19268,3.32211 -0.65624,4.90374c-0.92488,3.15559 -2.8512,5.93459 -4.25053,8.91033c-2.52114,11.16976 -6.41609,22.30202 -9.75036,33.27693c-0.54525,1.79471 -1.121,3.62417 -1.68574,5.47678c-2.14969,1.62041 -4.31691,3.22966 -6.32187,5.06005c-6.89235,6.29962 -13.61911,13.3513 -21.38887,18.59614c-3.52741,2.38111 -7.2757,4.23186 -10.79606,6.66711c-7.70419,5.32947 -15.90031,11.71004 -24.93706,14.50472c-4.50126,1.39204 -9.34895,3.0507 -14.03575,3.65949c-1.60886,0.20899 -5.30065,0.5015 -6.55918,-1.23399c-0.77301,-1.06597 -0.47167,-2.59159 -0.70711,-3.88712c-1.74371,-6.59177 1.73709,-15.32388 3.03459,-21.98457c1.55573,-7.98632 5.37639,-15.39318 8.49805,-22.895c2.35592,-5.66164 4.3292,-11.76028 7.1479,-17.20427c5.29456,-10.22584 12.04569,-19.92681 18.05882,-29.74593c10.06019,-16.42774 20.56558,-33.12129 32.45993,-48.30553c8.79505,-11.2277 18.96489,-21.67926 28.58671,-32.19979c2.59913,-2.8419 5.16803,-5.72456 7.71624,-8.62979z" data-paper-data="{&quot;noHover&quot;:false,&quot;origItem&quot;:[&quot;Path&quot;,{&quot;applyMatrix&quot;:true,&quot;segments&quot;:[[[-32.64386,131.6204],[5.19826,-5.6838],[-19.24364,21.04107]],[[-89.7314,195.99939],[17.59011,-22.4554],[-23.78871,30.36848]],[[-154.6283,292.48393],[20.12038,-32.85548],[-12.02627,19.63824]],[[-190.75695,351.96017],[10.58911,-20.45169],[-5.63739,10.88799]],[[-205.05817,386.3629],[4.71185,-11.32328],[-6.24332,15.00364]],[[-222.06007,432.14759],[3.11146,-15.97264],[-2.595,13.32138]],[[-228.13561,476.11177],[-3.48741,-13.18353],[0.47089,2.59106]],[[-226.72293,483.88493],[-1.54602,-2.13193],[2.51707,3.47098]],[[-213.60801,486.35064],[-3.21771,0.41797],[9.3736,-1.21759]],[[-185.54276,479.02803],[-9.00251,2.78408],[18.07351,-5.58935]],[[-135.6808,450.01311],[-15.40839,10.65894],[7.04073,-4.87051]],[[-114.09579,436.67654],[-7.05482,4.76222],[15.53953,-10.48966]],[[-71.33657,399.48077],[-13.7847,12.59925],[4.00992,-3.66077]],[[-58.70044,389.36027],[-4.29937,3.24082],[1.12947,-3.70522]],[[-55.33122,378.40671],[-1.0905,3.58942],[6.66855,-21.94981]],[[-35.85592,311.85632],[-5.04227,22.33952],[2.79866,-5.95148]],[[-27.37354,294.04277],[-1.84975,6.31118],[0.92713,-3.16326]],[[-26.0696,284.24013],[-1.2941,3.03168],[0.85021,-1.99177]],[[-21.30418,279.82416],[-0.68025,2.05603],[0.70688,-2.13652]],[[-22.40474,273.16321],[-0.45978,2.20295],[0.44553,-2.13468]],[[-18.77765,267.71873],[-1.11642,1.87322],[2.76462,-4.63868]],[[-11.14974,253.42679],[-2.27133,4.89914],[1.56209,-3.36934]],[[-9.16815,242.46291],[-1.04377,3.56414],[3.67072,-12.53431]],[[6.2272,204.62517],[-5.17174,12.04817],[9.1519,-21.32042]],[[36.97268,142.1915],[-10.60741,20.61318],[11.50878,-24.96522]],[[74.5158,69.28322],[-12.91046,24.15964],[9.36721,-17.52907]],[[104.35588,17.62853],[-8.2454,18.17144],[4.67154,-10.29527]],[[116.56038,-14.02613],[-4.37902,10.41656],[-8.36954,9.79921]],[[91.63763,15.46795],[8.26718,-9.89115],[-6.42331,7.68507]],[[73.27754,39.4738],[6.75785,-7.39044],[-6.6937,7.32028]],[[50.96827,59.94034],[7.31921,-6.70345],[-6.47671,6.7823]],[[31.87525,81.02402],[6.66088,-6.50008],[-4.19962,4.09823]],[[17.55881,91.26758],[4.78072,-3.4025],[-11.07234,7.88033]],[[-16.0998,113.7287],[11.83425,-6.67897],[-0.37411,0.21114]],[[-17.21987,114.3585],[0.37263,-0.20874],[-5.09643,5.81045]]],&quot;closed&quot;:true}]}" fill="#7c4949" stroke-width="0.5"/></g></g></svg>