<svg version="1.1" xmlns="http://www.w3.org/2000/svg" xmlns:xlink="http://www.w3.org/1999/xlink" width="674.93922" height="382.95014" viewBox="0,0,674.93922,382.95014"><g transform="translate(44.17178,15.87191)"><g data-paper-data="{&quot;isPaintingLayer&quot;:true}" fill-rule="nonzero" stroke="none" stroke-linecap="butt" stroke-linejoin="miter" stroke-miterlimit="10" stroke-dasharray="" stroke-dashoffset="0" style="mix-blend-mode: normal"><path d="M626.26294,247.00762v-4.5045h4.5045v4.5045z" fill="#737373" stroke-width="0"/><path d="M-37.75822,118.63409c0,0 -3.54493,0 -6.41354,-2.11063c0.06384,0.01219 0.12774,0.0241 0.1917,0.0357c0.63428,0.11509 1.30772,-0.3807 1.9243,-0.19259c1.42583,0.435 2.56277,1.60427 4,2c0.10538,0.02901 0.22443,0.04556 0.34824,0.049c-0.01381,0.06059 -0.03037,0.13304 -0.05071,0.21851z" fill="#717171" stroke-width="0.5"/><path d="M233.00621,57.45984l0.00001,0.00001v0z" data-paper-data="{&quot;noHover&quot;:false,&quot;origItem&quot;:[&quot;Path&quot;,{&quot;applyMatrix&quot;:true,&quot;segments&quot;:[[[244.66955,63.18418],[-3.58339,-2.06255],[5.88602,3.38792]],[[261.70889,74.65971],[-5.83759,-3.54794],[7.19328,4.37189]],[[282.9892,88.24856],[-6.67914,-5.13009],[0.15192,0.11668]],[[291.04321,94.44603],[-0.06532,-0.05893],[1.04189,0.94002]],[[293.8863,97.55078],[-1.23934,-0.65819],[0.88406,0.46951]],[[296.8893,97.55078],[-0.87442,-0.48722],[1.68283,0.93766]],[[301.06222,101.54915],[-1.06699,-1.60396],[0.91357,1.37334]],[[302.66368,106.23117],[-0.71391,-1.48694],[1.08676,2.26351]],[[307.10251,112.31815],[-1.43377,-2.06433],[17.04811,-10.75359]],[[357.52408,78.79273],[-16.80885,11.06924],[10.52139,-6.91559]],[[387.82424,55.15108],[-9.76742,7.94275],[1.00816,-0.81982]],[[395.27827,48.05727],[-0.848,0.53898],[2.27326,-1.44485]],[[402.81068,45.13144],[-2.28745,1.42228],[5.53159,-3.4394]],[[418.03525,32.73118],[-5.12688,3.93914],[6.44592,-4.9526]],[[438.96297,19.5442],[-6.96252,4.18419],[5.37701,-2.16069]],[[453.88873,12.08337],[-5.05645,2.78949],[0.4276,-0.23589]],[[460.27583,8.942],[-1.17165,0.52981],[-5.63729,-0.4256]],[[443.32087,6.15458],[5.49562,0.8793],[-12.47136,-1.99542]],[[405.90001,1.04105],[12.60034,0.90002],[-12.7063,-0.90759]],[[367.1828,0.25264],[12.73495,-0.86351],[-6.24196,0.42325]],[[348.72163,3.25017],[6.18433,-0.65096],[-4.82601,0.50798]],[[333.87058,3.22909],[4.77313,-0.81995],[-3.11975,0.53593]],[[324.86158,6.2321],[3.10545,-0.61335],[-1.01311,0.2001]],[[321.76358,6.24565],[1.02058,-0.15758],[-3.1828,0.49142]],[[312.19867,7.60861],[3.21876,-0.10603],[-8.75846,4.16912]],[[285.09646,18.87346],[8.50515,-4.60134],[-4.1969,2.27055]],[[273.00823,27.27979],[3.92277,-2.72191],[-5.40241,3.74859]],[[257.09122,38.97355],[5.02251,-4.26082],[-4.58032,3.88569]],[[243.37914,50.80897],[4.86598,-3.54821],[-3.32699,2.426]],[[233.05619,57.45925],[3.45856,-2.17353],[3.35825,2.43357]]],&quot;closed&quot;:true}]}" fill="#060502" stroke-width="0.5"/><path d="M-37.75823,118.63409c0,0 -3.54493,0 -6.41354,-2.11063c0.06384,0.01219 0.12774,0.0241 0.1917,0.0357c0.63428,0.11509 1.30772,-0.3807 1.9243,-0.19259c1.42583,0.435 2.56277,1.60427 4,2c0.10538,0.02901 0.22443,0.04556 0.34824,0.049c-0.01381,0.06059 -0.03037,0.13304 -0.05071,0.21851z" fill="#717171" stroke-width="0.5"/><path d="M-36.41373,119.48431c-0.67618,-0.35471 -0.95866,-0.80128 -1.09139,-1.07465c0.08261,-0.00709 0.16522,-0.01993 0.24533,-0.0387c0.36165,0.37786 0.85543,0.85865 1.40834,1.38121c-0.19047,-0.08267 -0.3782,-0.1713 -0.56227,-0.26786z" fill="#717171" stroke-width="0.5"/><path d="M-31.86039,99.06317c0.01139,0.00337 0.02276,0.00677 0.03411,0.01021c-0.55845,0.00365 -1.11205,-0.01905 -1.63442,-0.17178c-0.16823,-0.04918 -0.33231,-0.10905 -0.49322,-0.17704c0.71043,0.04373 1.41182,0.1371 2.09353,0.33861z" fill="#717171" stroke-width="0.5"/><path d="M233.0062,57.45984l0.00001,0.00001v0z" data-paper-data="{&quot;noHover&quot;:false,&quot;origItem&quot;:[&quot;Path&quot;,{&quot;applyMatrix&quot;:true,&quot;segments&quot;:[[[244.66955,63.18418],[-3.58339,-2.06255],[5.88602,3.38792]],[[261.70889,74.65971],[-5.83759,-3.54794],[7.19328,4.37189]],[[282.9892,88.24856],[-6.67914,-5.13009],[0.15192,0.11668]],[[291.04321,94.44603],[-0.06532,-0.05893],[1.04189,0.94002]],[[293.8863,97.55078],[-1.23934,-0.65819],[0.88406,0.46951]],[[296.8893,97.55078],[-0.87442,-0.48722],[1.68283,0.93766]],[[301.06222,101.54915],[-1.06699,-1.60396],[0.91357,1.37334]],[[302.66368,106.23117],[-0.71391,-1.48694],[1.08676,2.26351]],[[307.10251,112.31815],[-1.43377,-2.06433],[17.04811,-10.75359]],[[357.52408,78.79273],[-16.80885,11.06924],[10.52139,-6.91559]],[[387.82424,55.15108],[-9.76742,7.94275],[1.00816,-0.81982]],[[395.27827,48.05727],[-0.848,0.53898],[2.27326,-1.44485]],[[402.81068,45.13144],[-2.28745,1.42228],[5.53159,-3.4394]],[[418.03525,32.73118],[-5.12688,3.93914],[6.44592,-4.9526]],[[438.96297,19.5442],[-6.96252,4.18419],[5.37701,-2.16069]],[[453.88873,12.08337],[-5.05645,2.78949],[0.4276,-0.23589]],[[460.27583,8.942],[-1.17165,0.52981],[-5.63729,-0.4256]],[[443.32087,6.15458],[5.49562,0.8793],[-12.47136,-1.99542]],[[405.90001,1.04105],[12.60034,0.90002],[-12.7063,-0.90759]],[[367.1828,0.25264],[12.73495,-0.86351],[-6.24196,0.42325]],[[348.72163,3.25017],[6.18433,-0.65096],[-4.82601,0.50798]],[[333.87058,3.22909],[4.77313,-0.81995],[-3.11975,0.53593]],[[324.86158,6.2321],[3.10545,-0.61335],[-1.01311,0.2001]],[[321.76358,6.24565],[1.02058,-0.15758],[-3.1828,0.49142]],[[312.19867,7.60861],[3.21876,-0.10603],[-8.75846,4.16912]],[[285.09646,18.87346],[8.50515,-4.60134],[-4.1969,2.27055]],[[273.00823,27.27979],[3.92277,-2.72191],[-5.40241,3.74859]],[[257.09122,38.97355],[5.02251,-4.26082],[-4.58032,3.88569]],[[243.37914,50.80897],[4.86598,-3.54821],[-3.32699,2.426]],[[233.05619,57.45925],[3.45856,-2.17353],[3.35825,2.43357]]],&quot;closed&quot;:true}]}" fill="#060502" stroke-width="0.5"/><path d="M-2.16805,359.17332v-359.49756h484.01083v359.49757z" fill="#0b0a00" stroke-width="0"/><path d="M481.57218,60.13766c0,-1.04131 0,-2.08263 0,-3.12394c0,-0.17126 0,-0.3425 0,-0.51376c-3.44412,-0.85793 -6.43263,-3.06464 -9.7828,-4.25279c-4.51759,-1.60218 -9.12267,-2.97306 -13.77523,-4.12601c-8.46323,-2.09727 -17.0886,-3.48738 -25.57849,-5.474c-23.99331,-5.6144 -47.67437,-11.49073 -72.04344,-15.27167c-9.46312,-1.46823 -19.08756,-1.57799 -28.63065,-2.37534c-8.13184,-0.67944 -16.24601,-1.61778 -24.39506,-2.04376c-8.32398,-0.43512 -16.67069,0.0108 -25.00604,0.0108c-6.84434,0 -13.68869,0 -20.53303,0c0,3.34084 0,6.68168 0,10.02252c0,1.05063 -0.70103,2.14952 -0.33438,3.1341c0.39056,1.04879 1.23669,1.91564 1.5015,3.00301c0.30575,1.25547 -0.08029,2.60553 0.17298,3.87263c0.31023,1.55202 1.19111,2.95252 1.50151,4.50451c0.19631,0.98156 -0.19631,2.02145 0,3.00301c0.3104,1.55199 1.001,3.00301 1.5015,4.50451c0.17489,8.67744 0.16141,17.34738 0.16141,26.0263c0,0.36822 0.01498,16.89327 -0.04259,17.54752c-0.26686,3.03271 -1.24099,5.97575 -1.5015,9.00901c-0.51392,5.98398 0.64812,12.04709 0,18.01802c-0.65706,6.0533 -2.31407,11.96827 -3.00301,18.01802c-0.5376,4.72075 -0.51216,9.52827 -0.01824,14.25379c0.07729,0.73946 0.21416,1.46985 0.37599,2.19645c4.97886,-4.65431 9.89307,-8.7274 16.11897,-14.53737c5.22731,-4.8781 10.30978,-9.94979 15.96315,-14.32701c2.32608,-1.80101 4.63555,-3.63375 7.08965,-5.25601c0.45409,-0.30017 1.19292,-0.06825 1.5653,-0.46526c1.71202,-1.82525 2.5997,-4.38297 4.5045,-6.00601c1.92485,-1.64012 4.74788,-1.94695 6.70647,-3.54663c3.46695,-2.83163 6.10364,-6.56109 9.39016,-9.60027c3.1718,-2.93309 6.50868,-5.6942 9.95956,-8.29318c6.65209,-5.00994 13.46149,-9.8367 20.55062,-14.20637c2.81703,-1.7364 6.04539,-2.72951 8.88495,-4.42883c2.39918,-1.43578 4.34455,-3.56372 6.77631,-4.94361c1.5618,-0.88623 3.38842,-1.19045 5.08263,-1.78567c2.5025,-1.5015 4.84647,-3.30621 7.50751,-4.50451c3.30093,-1.48645 6.82233,-2.43059 10.27937,-3.50513c0.60665,-0.18856 1.35533,0.07357 1.88572,-0.27609c1.39186,-0.91761 2.12754,-2.77415 3.67642,-3.3908c4.27159,-1.70065 8.98822,-1.9762 13.53682,-2.64618c2.21441,-0.32617 3.81788,-2.53169 6.00601,-3.003c1.29429,-0.27878 9.54044,-0.40979 11.88092,-0.33439c1.96046,0.06316 3.95408,-0.06283 5.87491,0.33439c1.09596,0.22664 1.91772,1.22825 3.00301,1.5015c0.53868,0.13562 1.07709,-0.33439 1.63259,-0.33439c1.96148,0 3.95408,-0.06283 5.87491,0.33439c1.09596,0.22664 1.95422,1.11094 3.00301,1.5015c0.98458,0.36665 2.08346,-0.33439 3.13409,-0.33439c1.5015,0 3.00378,-0.04835 4.50451,0c1.96046,0.06316 3.95408,-0.06283 5.87491,0.33439c1.09168,0.22575 2.72721,2.20499 3.1341,1.16711c2.5025,0 5.005,0 7.5075,0h3.00301c0,0 2.4887,0 5.24518,1.11047c0.08983,-0.17258 0.18104,-0.33985 0.27283,-0.50155zM238.38977,167.85505c-0.29732,-2.53468 -1.25722,-4.96716 -1.5015,-7.50751c-0.10333,-1.07452 -0.05113,-18.47622 -0.01824,-18.77925c0.65706,-6.05329 2.31406,-11.96827 3.003,-18.01802c0.67957,-5.96743 -0.48525,-12.03165 0,-18.01802c0.24597,-3.03448 1.21595,-5.978 1.5015,-9.00901c1.16134,-12.32699 -0.3814,-25.0993 0.11882,-37.50726c-0.5005,-1.5015 -1.19111,-2.95252 -1.50151,-4.50451c-0.19631,-0.98156 0.19631,-2.02144 0,-3.003c-0.31039,-1.55199 -1.19089,-2.95256 -1.5015,-4.50451c-0.14002,-0.69958 0.35163,-1.44264 0.17298,-2.13336c-0.28025,-1.08349 -1.27486,-1.90704 -1.5015,-3.00301c-0.39127,-1.89209 -0.33439,-6.45602 -0.33439,-8.87792c0,-3.34048 0,-6.68095 0,-10.02142c-5.63941,0.02491 -11.29815,0.4622 -16.91464,-0.03254c-3.52542,-0.31055 -6.97834,-1.28066 -10.51051,-1.5015c-4.40808,-0.2756 -8.83964,0.25109 -13.25007,0.01593c-5.28145,-0.2816 -10.53249,-0.98453 -15.78957,-1.56432c-4.05957,-0.44772 -16.52991,-2.14286 -22.61466,-2.75337c-2.0959,0.42969 -4.16008,1.06292 -6.28792,1.26937c-10.19478,0.98916 -20.99201,0.06084 -31.26176,0.06084c-10.51051,0 -21.02102,0 -31.53153,0c-3.83746,0 -7.72051,-0.75846 -11.51123,-0.1614c-1.56345,0.24625 -2.93079,1.33283 -4.5045,1.5015c-9.91815,1.06298 -20.31215,0.46819 -30.4496,0.23892c0.8486,0.52821 1.92715,0.69268 2.72317,1.30598c3.67173,2.82895 6.36068,6.74716 9.89015,9.70636c2.23071,1.87029 4.83758,3.29975 6.89666,5.35749c1.38629,1.38538 1.9373,3.4636 3.32004,4.85253c3.97061,3.98841 12.98228,11.03917 17.9305,14.99782c9.9904,7.99247 20.16897,15.75466 30.50999,23.28799c3.55962,2.03893 7.29832,3.79299 10.67887,6.1168c4.82071,3.31378 9.12395,7.33192 13.86689,10.75609c15.5277,11.21022 31.71595,21.52025 46.87458,33.27771c5.25387,4.07505 9.82901,9.03684 15.36315,12.72228c3.15371,2.1002 7.27427,2.40492 10.4517,4.46904c9.98432,6.48601 19.18171,14.58617 27.8623,22.94796c-0.04404,-0.66829 -0.10291,-1.33041 -0.17966,-1.98469zM13.63342,-6.1815c8.50449,-3.667 18.51536,-0.53088 27.77477,-0.72208c16.66311,-0.34408 33.32973,-0.49022 49.9946,-0.73522c16.61593,-0.24428 33.20212,-0.40002 49.81654,-0.40003c3.19244,0 14.78857,-0.00244 15.66183,0.01762c5.21551,-0.59006 10.48408,-0.69842 15.68564,-1.40495c5.32457,-0.72324 10.57215,-1.93031 15.85823,-2.89546c5.37572,-1.05462 10.7004,-2.41491 16.12714,-3.16388c5.86056,-0.80885 11.83228,-0.10351 17.74824,-0.06084c2.07976,0.01501 4.19371,-0.26051 6.23827,0.12082c3.58193,0.66807 6.91019,2.4424 10.51051,3.003c10.04368,1.56388 12.91163,-3.24877 20.91138,7.30904c0.68764,0.90752 1.06407,1.95909 1.28343,3.08065c7.03882,0 14.07765,0 21.11647,0c35.59627,0 71.69192,1.87181 106.69251,8.85755c20.00277,3.99234 39.67628,9.67323 59.62153,13.94919c14.62786,3.13599 29.18248,5.82311 42.6737,12.67931c4.48564,2.27958 9.77819,3.74236 13.07481,7.54364c2.23611,2.57843 1.59306,6.64349 2.14916,10.01086c0.70297,4.2567 0,9.20811 0,13.51352l-5.16267,10.34033c0,0 -6.49991,6.49991 -13.92577,2.77786c-3.02684,6.88931 -11.42957,6.88931 -11.42957,6.88931c-2.5025,0 -8.00801,0 -10.51051,0c-1.9583,-0.11146 -3.95408,0.06283 -5.87491,-0.33438c-1.09596,-0.22664 -1.95422,-1.11095 -3.00301,-1.5015c-1.45182,-0.54064 -3.08638,0.33439 -4.6356,0.33439c-2.4219,0 -6.98583,0.05688 -8.87792,-0.33439c-1.09596,-0.22664 -1.95421,-1.11094 -3.003,-1.5015c-2.34517,-0.87332 -5.04326,0.43587 -7.50751,0c-1.10204,-0.19493 -1.95421,-1.11094 -3.003,-1.5015c-1.45182,-0.54064 -3.08868,0.41867 -4.6356,0.33438c-0.55467,-0.03022 -1.07957,-0.38683 -1.63259,-0.33438c-0.19564,0.01856 -0.10897,0.42834 -0.28474,0.51623c-1.85992,0.92996 -3.71186,1.95162 -5.72126,2.48677c-2.41344,0.64276 -5.27003,-0.79873 -7.4842,0.35683c-1.03497,0.54014 -1.31322,2.04082 -2.32959,2.6152c-5.28587,2.9872 -9.36264,2.70094 -14.86194,5.22778c-2.65185,1.21849 -5.00501,3.003 -7.50751,4.5045c-1.30879,0.40578 -2.73931,0.53289 -3.92638,1.21733c-1.91418,1.10369 -3.34242,2.92623 -5.2357,4.0654c-2.91821,1.75587 -6.23117,2.79748 -9.13307,4.58019c-6.39009,3.92557 -12.4783,8.33491 -18.48842,12.82066c-7.15208,5.33805 -12.78674,12.48562 -19.68932,18.14259c-1.50765,1.23559 -3.82976,1.18588 -5.30554,2.45937c-1.89461,1.63492 -2.69483,4.27754 -4.50451,6.006c-1.23289,1.17756 -3.02555,1.58695 -4.4407,2.53774c-1.64775,1.10707 -11.18796,8.68528 -11.74863,9.19147c-7.53265,6.80072 -14.8416,13.8452 -22.25562,20.77506c-2.85424,2.66786 -5.67143,5.38541 -8.29833,8.27739c-0.49188,0.54152 -0.9591,1.10474 -1.41313,1.67951c0.37095,0.00421 0.74036,0.0065 1.10805,0.0065c6.57153,0 14.42297,-1.00294 20.88993,0.33438c1.09596,0.22664 1.95421,1.11095 3.003,1.50151c1.87613,0.69866 4.05086,-0.43061 6.00601,0c1.5861,0.34933 2.93002,1.42141 4.46792,1.94355c2.3658,0.80322 5.03564,0.80542 7.21696,2.02363c2.37266,1.32507 3.62142,4.2917 6.09732,5.41208c1.66825,0.75491 3.66048,-0.1122 5.49072,-0.1683c7.91033,4.60045 16.33402,7.21278 24.45476,11.27607c3.36156,1.68199 11.87139,7.30554 15.47559,9.24952c4.16069,2.24414 8.70084,3.80773 12.66154,6.38849c5.34209,3.48086 10.34656,7.48907 15.1214,11.71462c7.64653,6.76691 14.34776,14.56624 20.87415,22.41906c3.15619,3.79766 6.73398,7.26136 9.59954,11.28284c7.08225,9.93912 11.53263,21.54573 18.18642,31.77664c0.81113,1.24719 15.03786,19.44012 17.57318,21.75887c3.05971,2.79834 6.93924,4.56727 10.15044,7.19041c2.0646,1.68652 3.51358,4.05588 5.61897,5.69119c2.30482,1.79021 5.1515,2.78222 7.50751,4.5045c1.55403,1.13602 2.76612,2.67783 4.14918,4.01674c0,0 8.83884,8.83883 0,17.67767c-8.83884,8.83884 -17.67767,0 -17.67767,0c-2.59193,-2.77682 -6.36739,-4.15985 -9.36433,-6.49378c-2.36434,-1.84128 -4.07505,-4.42152 -6.39304,-6.32082c-3.45339,-2.82963 -7.60174,-4.78365 -10.87058,-7.82461c-3.81925,-3.553 -6.9516,-7.78383 -10.25079,-11.82435c-3.85875,-4.7258 -7.87636,-9.35834 -11.21506,-14.46483c-6.57045,-10.04939 -10.85768,-21.5256 -17.84962,-31.28643c-2.49872,-3.48825 -5.66659,-6.44598 -8.41848,-9.73818c-5.71644,-6.83882 -11.51878,-13.68358 -18.16488,-19.62298c-3.75587,-3.35649 -7.66618,-6.58617 -11.90563,-9.3064c-3.55676,-2.28218 -7.64019,-3.62266 -11.36248,-5.62352c-4.98883,-2.68167 -9.48757,-6.23734 -14.55444,-8.7685c-6.83493,-3.4144 -14.84876,-4.38031 -20.59029,-9.74495c-2.17377,-0.0561 -4.52976,0.70476 -6.52129,-0.1683c-3.38696,-1.48479 -5.68107,-4.81098 -8.9177,-6.59993c-1.42777,-0.78915 -3.24219,-0.47946 -4.79505,-0.97937c-0.5926,-0.19078 -0.96708,-0.81142 -1.53809,-1.05945c-1.83625,-0.79764 -4.04549,0.40542 -6.00601,0c-1.09596,-0.22664 -1.95421,-1.11094 -3.003,-1.5015c-1.45182,-0.54065 -3.08638,0.33439 -4.6356,0.33439c-3.10615,0 -6.21229,0 -9.31844,0c0.29849,1.02849 0.55126,2.08191 1.02787,3.02912c2.49479,4.95819 5.73704,9.21738 7.35081,14.70558c1.5015,2.002 3.39469,3.76306 4.5045,6.00601c2.7093,5.47554 3.84924,11.61736 6.33676,17.19715c0.84089,1.8862 1.9352,3.65224 2.78034,5.53654c0.48174,1.07407 0.40584,2.44895 1.19364,3.32364c1.20769,1.34089 3.24662,1.70908 4.5045,3.003c1.06203,1.09245 1.3942,2.72067 2.27105,3.96666c1.35676,1.92793 3.53025,3.34156 4.41097,5.52834c1.38681,3.44341 1.5417,15.14186 0,18.5761c-0.84976,1.8929 -7.76809,9.64507 -10.24562,11.36299c-1.83938,1.27542 -4.18462,1.70202 -6.00601,3.00301c-1.72791,1.23422 -2.73769,3.32663 -4.5045,4.5045c-2.79357,1.86239 -6.16189,2.72505 -9.00901,4.5045c-1.20045,0.75028 -1.85294,2.17755 -3.003,3.003c-1.30154,0.93416 -9.19178,4.84513 -10.44297,5.02809c-0.57091,0.08348 -0.30062,-1.81308 -0.80478,-1.53248c-0.62192,0.34614 -0.1677,1.41359 -0.25155,2.12039c-3.16359,1.15818 -6.35013,2.2555 -9.49077,3.47455c-1.51406,0.58769 -2.88011,1.60209 -4.46792,1.94355c-1.75224,0.37682 -3.60704,-0.12655 -5.37414,0.17298c-1.56046,0.2645 -2.93953,1.26516 -4.5045,1.5015c-3.67292,0.55468 -7.47042,-0.73402 -11.14238,-0.17298c-1.10631,0.16904 -1.89883,1.31901 -3.00301,1.50151c-2.58241,0.42683 -5.24405,0.01585 -7.84691,0.29179c-7.12301,0.75516 -14.13784,2.41803 -21.27531,3.02144c-1.95855,0.16558 -3.93917,-0.18556 -5.89661,-0.00729c-3.52448,0.32098 -6.97825,1.28189 -10.51051,1.5015c-4.38085,0.27236 -8.78968,-0.34112 -13.16791,-0.02938c-2.54561,0.18125 -4.96965,1.23261 -7.50751,1.50151c-2.39923,0.25421 -4.83832,0.31344 -7.23772,0.06083c-0.51353,-0.05406 -0.75875,-1.17867 -1.22246,-0.9515c-0.93199,0.45657 -0.91937,2.10369 -1.88832,2.47544c-3.89617,1.49481 -8.04267,2.33094 -12.17401,2.91974c-5.3529,0.7629 -10.84318,-0.59415 -16.22095,-0.03282c-2.05246,0.21423 -4.00401,1.001 -6.00601,1.5015c-3.05569,0.06317 -6.1446,-0.70236 -9.16589,-0.24073c-1.10631,0.16904 -1.90703,1.27486 -3.003,1.5015c-4.20364,0.86928 -9.08566,0.33439 -13.38242,0.33439c-4.4871,0 -9.03493,0.19606 -13.51351,0c-0.55496,-0.02429 -1.09391,-0.47001 -1.63259,-0.33439c-1.08528,0.27324 -1.89227,1.3645 -3.003,1.50151c-5.01406,0.61847 -10.14617,-0.39565 -15.15371,0.27355c-2.52958,0.33805 -4.97773,1.16492 -7.5075,1.50151c-2.80972,0.37384 -5.94085,-0.4631 -8.71344,-0.03283c-2.68353,0.41645 -5.03621,2.07855 -7.66439,2.76227c-0.96876,0.25202 -2.03188,-0.24278 -3.003,0c-1.08574,0.27143 -2.002,1.00101 -3.003,1.50151c-2.25237,-0.06732 -4.54395,-0.62578 -6.75712,-0.20197c-0.85733,0.16418 -1.12811,1.36399 -1.85272,1.85073c-0.62239,0.41808 -1.29511,0.75035 -1.97709,1.06684c-0.63015,0.6059 -9.13524,8.46871 -17.64034,-0.03638c-2.4743,-2.4743 -3.56331,-4.9486 -3.84872,-7.229c-0.74563,0.06282 -1.51779,0.31891 -2.19636,0.04527c-3.14919,-1.26997 -5.97995,-3.21885 -8.96992,-4.82828c-1.60943,-2.98998 -3.7129,-5.76273 -4.82828,-8.96993c-0.6443,-1.85264 -0.26056,-3.91483 -0.33439,-5.87491c-0.15115,-4.01306 -0.43039,-10.36134 0.95151,-13.79255c0.88071,-2.18678 3.06008,-3.59629 4.41097,-5.52833c3.4072,-4.87295 5.19609,-9.65438 10.33915,-13.34216c2.15133,-1.54259 4.74356,-2.35838 7.0408,-3.67385c3.59889,-2.06083 6.75533,-5.16812 10.21295,-7.32927c7.16876,-4.48074 15.53268,-7.47541 22.60088,-12.06004c5.59897,-3.63164 10.5863,-8.15123 16.17587,-11.79734c5.89482,-3.84523 12.21374,-7.0002 18.23291,-10.64771c2.62881,-1.59301 5.2958,-3.15786 7.70319,-5.06909c2.76886,-2.19818 4.77644,-5.33939 7.77213,-7.21673c1.99304,-1.24901 4.68993,-0.85666 6.79259,-1.91072c2.09664,-1.05104 3.71788,-2.86002 5.57682,-4.29003c3.16138,-1.07974 6.49626,-1.74497 9.48412,-3.23923c4.11418,-2.05753 7.62608,-5.17634 11.68214,-7.34617c0.30979,-0.16572 16.01712,-6.49331 16.62763,-6.68682c2.68272,-0.85036 5.64232,-0.80741 8.2149,-1.94844c1.35545,-0.60119 1.85466,-2.44892 3.18336,-3.10712c2.44102,-1.20922 5.2598,-1.43895 7.82792,-2.34757c4.47723,-1.58408 8.9572,-3.06661 13.51351,-4.5045c3.68208,-1.162 6.80031,-3.75807 10.47393,-4.94655c2.00127,-0.64745 4.78212,0.2705 6.824,-0.76732c1.46794,-0.74612 2.5671,-2.12653 4.06953,-2.80051c2.55769,-1.14737 5.26431,-1.9737 7.99412,-2.61115c1.12917,-0.26368 2.33399,0.12154 3.47799,-0.06775c2.03593,-0.33687 3.96564,-1.19259 6.00601,-1.5015c2.96917,-0.44952 6.03272,0.39964 9.00901,0c2.04526,-0.27463 4.00401,-1.00101 6.00601,-1.50151c1.44637,-0.01798 2.95795,0.02782 4.50032,0.09228c-3.9366,-3.80737 -7.91402,-7.4371 -12.28321,-10.95811c-4.55436,-3.67023 -8.71391,-7.88262 -13.63106,-11.05033c-3.2234,-2.07657 -7.3799,-2.41159 -10.56932,-4.53996c-6.30346,-4.20645 -11.66544,-9.68149 -17.66987,-14.30475c-14.98497,-11.53805 -30.91356,-21.73053 -46.21852,-32.78834c-4.50951,-3.25811 -8.5759,-7.11283 -13.16013,-10.26494c-3.26975,-2.24828 -6.89477,-3.93015 -10.34216,-5.89522c-18.28135,-13.27531 -37.57436,-26.77062 -53.66161,-42.79527c-1.16872,-1.16417 -1.52003,-2.98953 -2.68598,-4.15648c-1.48074,-1.48201 -3.50169,-2.31547 -5.11536,-3.65152c-2.85693,-2.36543 -5.13997,-6.17368 -8.12786,-8.31165c-0.91015,-0.65125 -2.13275,-0.79782 -3.003,-1.50151c-2.84094,-2.29718 -4.73633,-5.70245 -7.78605,-7.7142c-3.7063,-2.44485 -7.96168,-4.05819 -11.45244,-6.802c-1.52914,-1.20193 -1.93626,-3.42914 -3.31249,-4.80352c-1.27688,-1.27518 -3.24432,-1.71131 -4.5045,-3.003c-0.89225,-0.91456 -0.82749,-2.52714 -1.75158,-3.40951c-0.41089,-0.39235 -1.15934,0.28571 -1.70063,0.11316c-1.34775,-0.42962 -2.53975,-1.24643 -3.80963,-1.86965c0,0 -11.18034,-5.59017 -5.59017,-16.77051c5.59017,-11.18034 16.77051,-5.59017 16.77051,-5.59017c2.85849,1.475 6.2025,2.0718 8.88302,3.81447c0.19022,-0.09668 0.38466,-0.18804 0.58355,-0.27379zM240.34421,215.06571c-5.81184,0.80456 -12.1566,0.12257 -18.01801,0c-2.002,0.5005 -3.95657,1.26005 -6.00601,1.50151c-2.98237,0.35137 -6.0578,-0.55534 -9.00901,0c-2.83479,0.53342 -5.66148,1.17097 -8.53403,1.43375c-2.30925,0.21124 -3.79581,2.75005 -5.95436,3.59734c-3.05692,1.19993 -6.31525,1.83324 -9.53563,2.47642c-0.54777,0.1094 -1.13269,-0.4296 -1.65838,-0.24073c-2.68792,0.96569 -4.84363,3.13245 -7.54409,4.06246c-3.68682,1.26969 -6.63856,1.42759 -10.06379,2.82793c-1.18344,0.48382 -2.22698,1.30304 -3.44972,1.67657c-1.35011,0.41244 -2.92511,0.01679 -4.1841,0.65544c-1.2028,0.61014 -1.59049,2.35045 -2.82264,2.89889c-8.33682,3.71077 -18.0703,4.97008 -26.20852,9.38276c-4.25785,2.30867 -8.00956,5.50315 -12.34189,7.66884c-2.67481,1.33712 -5.68927,1.84452 -8.5339,2.76678c-2.14507,1.573 -4.0547,3.53202 -6.43519,4.71899c-1.59072,0.79317 -3.71035,0.15302 -5.21942,1.09228c-1.81142,1.12745 -2.57907,3.45585 -4.23988,4.79528c-3.22616,2.60186 -6.78576,4.76957 -10.31483,6.94292c-5.84821,3.60158 -12.04986,6.62192 -17.80313,10.3733c-5.81459,3.79136 -11.0254,8.46178 -16.85716,12.22669c-7.03164,4.53954 -15.32915,7.51742 -22.44416,11.96398c-3.74884,2.34285 -6.96779,5.49599 -10.80806,7.68575c-1.59003,0.90665 -3.37111,1.4434 -4.97122,2.33216c-2.17726,1.20932 -3.28603,6.01305 -4.67586,7.67886c-0.10709,0.12835 -0.27206,0.26786 -0.45705,0.38656c-0.05291,0.29356 -0.11737,0.59108 -0.15498,0.87938c0.37505,0.13459 0.67526,0.23635 0.85093,0.28058c0.53869,0.13563 1.08839,-0.22292 1.63259,-0.33438h4.50451c0,0 5.15022,0 8.83895,3.30585c0.60363,0.02868 1.20557,0.04615 1.80266,0.03154c1.001,-0.5005 1.91726,-1.23007 3.003,-1.5015c0.97112,-0.24278 2.02818,0.22743 3.003,0c0.60627,-0.14144 0.944,-0.87333 1.53808,-1.05946c2.88892,-0.90508 5.83133,-1.67492 8.81555,-2.18428c3.03903,-0.51872 6.29483,0.43449 9.30458,-0.03282c2.52184,-0.39155 4.97302,-1.20251 7.50751,-1.5015c3.93156,-0.4638 7.94639,0.77499 11.87333,0.27355c1.11014,-0.14175 1.90095,-1.30658 3.003,-1.50151c5.68689,-1.00588 12.10957,-0.33438 17.88693,-0.33438c2.002,0 4.00401,0 6.00601,0c1.54922,0 3.18378,0.87503 4.63559,0.33438c1.04879,-0.39056 1.89423,-1.34939 3.00301,-1.5015c5.18437,-0.71123 7.73463,-0.50224 11.85513,-0.24073c5.37428,-1.34357 11.00263,-1.58434 16.54231,-1.59516c2.09202,-0.00408 4.18377,0.06599 6.27578,0.06083c0.94741,-0.00233 2.00021,0.35337 2.841,-0.08327c1.60454,-0.83328 2.38624,-3.00998 4.11768,-3.53056c4.97637,-1.49622 10.40279,-0.28528 15.56384,-0.89067c2.53468,-0.29732 4.96197,-1.31912 7.50751,-1.5015c4.6079,-0.33015 9.24849,0.26024 13.85912,-0.02939c3.53211,-0.22188 6.98592,-1.18165 10.51051,-1.5015c2.03012,-0.18424 4.08375,0.1593 6.1154,-0.00729c6.96998,-0.57151 13.80345,-2.33656 20.76673,-2.98457c1.38578,-0.12896 2.79274,0.5234 4.16511,0.2918c1.10355,-0.18624 1.89423,-1.3494 3.003,-1.50151c4.25442,-0.58365 8.66383,0.63371 12.88164,-0.17298c1.55454,-0.29732 2.94245,-1.24654 4.5045,-1.5015c1.19716,-0.1954 2.43931,0.37786 3.63487,0.17298c0.61361,-0.10515 0.92196,-0.97022 1.53809,-1.05945c0.84616,-0.12255 1.68082,0.31436 2.52124,0.47154c0.91715,-1.29521 1.32886,-3.18208 2.75145,-3.88562c2.49375,-1.23327 5.49983,-0.8798 8.20423,-1.53247c1.16485,-0.28112 4.35654,-3.84623 4.57205,-3.98092c2.84712,-1.77945 6.21544,-2.64212 9.00901,-4.50451c1.76681,-1.17787 2.77659,-3.27028 4.5045,-4.5045c1.82139,-1.30099 4.11134,-1.81126 6.00601,-3.003c0.00966,-0.00608 0.01921,-0.01231 0.02864,-0.01868c-0.55965,-0.98212 -0.53028,-1.54181 -0.24552,-1.79323c-0.05278,-0.30503 -0.13227,-0.59242 -0.34373,-0.79604c-1.29989,-1.25171 -3.37986,-1.59174 -4.5045,-3.00301c-4.89087,-6.13736 -8.74316,-16.14786 -11.37534,-23.49258c-0.88421,-2.46726 -1.15395,-5.1689 -2.33793,-7.50715c-1.13049,-2.23261 -3.003,-4.00401 -4.5045,-6.00601c-1.62675,-4.5422 -1.89218,-5.98436 -4.24364,-10.03776c-1.05324,-1.81554 -2.48698,-3.40682 -3.42056,-5.2867c-0.52522,-1.05759 -0.24454,-2.44637 -0.9057,-3.42476c-0.88429,-1.30857 -2.51765,-1.94591 -3.53815,-3.15129c-1.39236,-1.6446 -2.70998,-3.35278 -3.96977,-5.1042c-0.94198,0.24043 -1.89127,0.44337 -2.85418,0.57667zM14.02348,357.57633c-0.28494,0.13176 -0.56847,0.2659 -0.84762,0.40752z" fill="#6c6c6c" stroke-width="0.5"/></g></g></svg>