<svg version="1.1" xmlns="http://www.w3.org/2000/svg" xmlns:xlink="http://www.w3.org/1999/xlink" width="532.39558" height="391.82909" viewBox="0,0,532.39558,391.82909"><g transform="translate(14.00784,14.8065)"><g data-paper-data="{&quot;isPaintingLayer&quot;:true}" fill-rule="nonzero" stroke="none" stroke-linecap="butt" stroke-linejoin="miter" stroke-miterlimit="10" stroke-dasharray="" stroke-dashoffset="0" style="mix-blend-mode: normal"><path d="M-6.75825,373.63409v-387h509v387z" fill="#848a79" stroke-width="0"/><path d="M-7.06258,376.42281c-9.52578,-3.04295 -6.48283,-12.56873 -6.48283,-12.56873l0.60859,-1.90516c0.42216,-1.32155 2.30677,-7.25977 2.51898,-7.6893c3.01418,-6.10113 7.26485,-11.51189 11.08194,-17.14562c1.60999,-2.37621 2.82108,-5.01927 4.54897,-7.31119c13.63454,-18.08535 30.26876,-34.03489 45.20793,-50.9844c15.43511,-15.83255 31.31715,-31.38026 46.31834,-47.63227c18.10086,-19.61013 35.10159,-40.19031 53.31899,-59.70759c9.09792,-9.74709 18.18955,-19.50004 27.29454,-29.24052c4.72408,-5.05381 9.10219,-10.45626 14.18245,-15.15188c4.85413,-4.48662 10.35643,-8.21667 15.53908,-12.3194c1.45992,-1.15571 30.69949,-24.27338 31.8869,-25.1802c6.13299,-4.68378 13.20417,-7.99094 19.81337,-11.97463c5.85748,-3.53059 11.55216,-7.34724 17.57587,-10.58609c22.61932,-12.16206 46.97662,-21.48862 70.55081,-31.59178c22.2546,-9.77376 44.39993,-17.66661 67.40526,-25.46026c0.60186,-0.2039 37.88259,-12.83627 38.2531,-12.95135c3.37092,-1.04693 14.68393,-3.72843 18.46622,-4.32198c1.5698,-0.24635 3.20115,0.03591 4.75894,-0.27745c5.288,-1.0637 10.65144,-3.05219 15.93956,-4.2843c2.58561,-0.60243 5.34198,-0.35723 7.88591,-1.11663c1.1265,-0.33627 2.04527,-1.24939 3.19549,-1.4925c1.78273,-0.37678 3.63734,-0.22401 5.45601,-0.33602c0,0 9.99921,-0.12553 10.12474,9.87368c0.12553,9.99921 -9.87369,10.12473 -9.87369,10.12473c-0.90427,-0.26734 -1.79125,0.59248 -2.70005,0.844c-1.95173,0.54019 -3.98435,0.72833 -5.98179,1.06198c-4.97987,0.83184 -10.01112,1.9429 -14.88931,3.18242c-1.74887,0.44437 -3.35913,1.37883 -5.12852,1.73273c-1.96247,0.39251 -4.00611,0.18452 -5.98401,0.48991c-2.75708,0.42568 -13.49967,3.04327 -15.58842,3.69558c-12.6043,3.93627 -25.0105,8.48083 -37.51695,12.7177c-22.49045,7.61921 -44.10971,15.31398 -65.8625,24.86544c-23.06873,9.88671 -46.94801,18.97718 -69.08113,30.88157c-5.71931,3.07616 -11.11577,6.71811 -16.67541,10.07425c-6.24682,3.77097 -12.97996,6.82893 -18.75457,11.28952c-10.38563,8.02236 -20.57211,16.29933 -30.87339,24.42974c-4.79415,3.78383 -9.90713,7.19371 -14.39165,11.33985c-4.71061,4.35518 -8.73786,9.39572 -13.1121,14.08864l-27.29455,29.24052c-18.19292,19.48893 -35.16709,40.04262 -53.24288,59.6256c-15.01117,16.26282 -30.89747,31.82609 -46.34808,47.66442c-14.40331,16.34884 -30.55723,31.70856 -43.70321,49.15504c-1.58103,2.09823 -2.65751,4.53714 -4.13007,6.71288c-4.54486,6.71514 -8.68464,12.06592 -11.1396,19.75104l-0.60859,1.90516c0,0 -3.04295,9.52578 -12.56873,6.48283z" fill="#cfcfcf" stroke-width="0.5"/></g></g></svg>