<svg version="1.1" xmlns="http://www.w3.org/2000/svg" xmlns:xlink="http://www.w3.org/1999/xlink" width="25.15538" height="23.45722" viewBox="0,0,25.15538,23.45722"><g transform="translate(-240.92231,-181.89639)"><g data-paper-data="{&quot;isPaintingLayer&quot;:true}" fill="#a0a0a0" fill-rule="nonzero" stroke="none" stroke-width="0.5" stroke-linecap="butt" stroke-linejoin="miter" stroke-miterlimit="10" stroke-dasharray="" stroke-dashoffset="0" style="mix-blend-mode: normal"><path d="M262.58736,205.3157c-0.05843,0 -0.11639,-0.002 -0.17381,-0.00595c-0.31451,0.05753 -0.6431,0.06061 -0.97579,-0.00354c-2.83441,-0.5465 -5.63892,-2.87738 -8.01349,-5.31637l-0.16996,-0.0517l-0.25627,-0.15372l-0.12565,-0.12562l-0.1611,-0.07494l-0.53818,-0.43554l-0.11307,-0.15015l-0.15684,-0.10359l-0.15146,-0.16518l-0.23368,-0.18689l-0.12821,-0.16822l-0.17494,-0.11887l-0.54973,-0.61551l-0.66733,-0.6004l-0.03763,-0.05582l-0.05773,-0.03463l-0.38442,-0.3843l-0.18739,-0.18733l-0.00249,0.26088l0.08489,0.54314l0.34009,1.56391l0.00806,0.02418l0.00154,0.01996l0.01904,0.08754l-0.00352,0.11401l0.0015,0.01947l0.08859,0.22487l0.07746,0.59097l-0.03006,0.26101v0.3439l0.0109,0.16735l-0.05126,0.28181l-0.06838,0.15113l-0.00861,0.07481l-0.03844,0.02919l-0.04433,0.09798l-0.11238,0.44952l-0.12275,0.07014l-0.13625,0.30113l-1.02158,0.36048l-0.90693,0.51824l-0.21445,-0.12254l-0.23292,0.08219l-0.79955,-0.67217l-0.94058,-0.53747l-0.08016,-0.32066l-0.10821,-0.09097l-0.03012,-0.46238l-0.094,-0.37599v-0.18893l-0.00649,-0.01092l-0.02854,-0.03005l-0.26799,-0.474l-0.1793,-0.25094v-0.00001h-0.00001l-0.42401,-0.59342l-0.17896,-0.19517l-0.02885,-0.05318l-0.04885,-0.03569l-0.25627,-0.30744l-0.00856,-0.01772l-0.01571,-0.01185l-0.48906,-0.6053l-0.1632,-0.17798l-0.31315,-0.29218l-0.10602,-0.16359l-0.15404,-0.11948l-0.56381,-0.71735l-0.12007,-0.26805l-0.18412,-0.22884l-0.15377,-0.33305l-0.06337,-0.3339l-0.00539,-0.01204l0.00212,-0.00522l-0.01404,-0.07395l-0.14042,-0.40928l-0.07688,-0.89669l0.0292,-0.18155l-0.03391,-0.18073l0.35308,-5.92479l-0.02397,-1.38994l0.08383,-0.3617l0.0016,-0.04649l-0.00173,-0.00296l0.00209,-0.00735l0.01085,-0.31427l0.10351,-0.36067l0.08885,-0.15359l0.00189,-0.00816l0.00431,-0.00257l0.05757,-0.09952l0.08338,-0.29319l0.10272,-0.17854l0.21707,-0.22518l0.05559,-0.09609l0.0248,-0.121l0.32786,-0.20643l0.26889,-0.27894l0.17333,0.00051l0.01154,-0.00726l0.12274,-0.10518l0.15377,-0.07686l0.01946,-0.00432l0.01275,-0.00803l0.15256,-0.05004l0.10294,-0.00742l0.22384,-0.11936l0.20502,-0.05124h0.03376l0.0302,-0.0151l0.23064,-0.05124l0.27011,0.00712l0.03753,-0.0178l0.19862,-0.03984l0.03594,-0.00898h0.00885l0.01203,-0.00241l0.0513,0.00241h0.18492l0.02525,0.00631l0.2302,-0.05755h0.30918l0.20518,-0.01658l0.0153,0.00254l0.01475,-0.00478l0.26581,-0.01826l0.18846,-0.0314l0.30098,0.0241l0.00595,-0.00252l0.82008,-0.1281l0.26807,0.0242l0.26451,-0.04984l0.23764,0.01397l0.31516,-0.0315l0.46002,-0.04599l0.48593,-0.0694l0.07021,0.00727l0.06674,-0.02298l0.58944,-0.05124l0.06287,0.01003l0.06115,-0.01772l0.65363,-0.0242l1.47377,-0.09989l0.00908,0.00163l0.00879,-0.00277l0.80462,-0.04875l0.77909,-0.07302l0.11774,0.01798l0.11555,-0.02889h1.54987l0.78106,-0.0244l0.11857,0.02574l0.11935,-0.02184l1.17759,0.07545l1.08467,0.05021l0.04122,0.01236l0.04245,-0.00708l0.6035,0.04826l0.47528,0.02376l0.06089,0.0185l0.06297,-0.00922l0.51255,0.05124l0.38413,0.13788l0.35634,0.06541l0.02172,0.00395l0.00015,0.00007l0.02322,0.00426l0.19983,0.0908l0.20739,0.02369l0.20501,0.07686l0.38696,0.26682l0.15142,0.06849l0.01676,0.04748l0.29896,0.20615l0.10966,0.03238l0.03472,0.06718l0.06226,0.04293l0.01827,0.11287l0.41259,0.79829l0.01224,0.00991l-0.0016,0.01068l0.05312,0.10277l0.05144,0.21767l-0.01665,1.28836l-0.38142,0.35618l-0.0771,0.51614l-1.05176,0.74429l-0.23083,0.08976l-0.09967,0.01261l-0.00062,0.00058l-0.0012,-0.00035l-0.01569,0.00199l-0.10231,0.05901l-0.17939,0.05124l-0.00679,0.00023l-0.0059,0.00336l-0.64069,0.17934l-0.33984,0.0095l-0.09896,0.04433l-0.67202,0.11964l-1.33711,0.29165l-1.25621,0.30139l-0.02399,-0.00023l-0.02148,0.01069l-0.0217,0.00478l0.09019,0.12295l0.05466,0.13376l0.09999,0.10431l0.41004,0.71735l0.03132,0.11129l0.07211,0.09036l0.94822,2.0752l0.02818,0.15176l0.08096,0.13142l0.18175,0.57303l0.01603,0.2575l0.08785,0.24258l0.00879,0.0855c3.90537,3.19153 8.04931,7.31124 6.33489,9.91686c-0.17252,0.2622 -0.47293,0.43168 -0.82992,0.5322c-0.39994,0.84802 -1.26264,1.43487 -2.2624,1.43487z"/></g></g></svg>