<svg version="1.1" xmlns="http://www.w3.org/2000/svg" xmlns:xlink="http://www.w3.org/1999/xlink" width="128.15193" height="24.40989" viewBox="0,0,128.15193,24.40989"><g transform="translate(-204.23292,-167.79505)"><g data-paper-data="{&quot;isPaintingLayer&quot;:true}" fill-rule="nonzero" stroke-linecap="butt" stroke-linejoin="miter" stroke-miterlimit="10" stroke-dasharray="" stroke-dashoffset="0" style="mix-blend-mode: normal"><path d="M267.56506,191.20495c-22.96889,0 -44.21479,-0.78743 -61.49766,-2.12319c0.1311,-6.04826 -0.38727,-12.04803 -0.77376,-18.10314c17.4207,-1.37237 38.95857,-2.18356 62.27142,-2.18356c23.93826,0 46.00503,0.8553 63.66452,2.29522c-0.94308,5.99677 -2.08524,11.98851 -3.12781,18.06488c-17.10673,1.29116 -37.99174,2.04979 -60.53671,2.04979z" fill="#fdfbff" stroke="#000000" stroke-width="2"/><path d="M218.72605,183.97224l-0.50261,-0.20099l-0.26451,-0.191l-0.01784,-0.00745c-1.76346,2.4003 -4.28043,5.68127 -6.0841,5.16574c-4.0724,-1.16398 -0.37482,-5.77263 1.97462,-8.36815l-0.12012,-0.20015l-0.2782,-0.3499l-0.19396,-0.42656l-0.28542,-0.42799l-0.00624,-0.0022l-0.01008,-0.02227l-0.14135,-0.21197l-0.17065,-0.4776l-0.20907,-0.46207l-0.04559,-0.25066l-0.00822,-0.02302l0.00296,-0.00592l-0.06021,-0.33101l0.01844,-0.28298l-0.05621,-0.27795l0.05553,-1.22122l0.0681,-0.22787l-0.00265,-0.23781l0.27228,-1.14318l-0.01119,-0.03688l0.31446,-0.55953l0.29571,-0.56967l0.03699,-0.01085l0.92807,-0.98234l0.35562,-0.22735l0.31719,-0.27847l1.62964,-0.8391l0.39757,-0.0933l0.37717,-0.15654l1.51665,-0.22678l0.00215,-0.00221l0.012,0.00009l0.28221,-0.0422l0.49596,0.04803l0.49826,0.00374l0.2763,0.07128l0.01195,0.00116l0.00191,0.00242l4.55133,1.17417l0.41741,0.22665l0.43944,0.18024l2.37698,1.74848l0.22011,0.26582l0.27166,0.21286l1.49025,1.91541l0.03228,0.01167l0.03071,0.06929l0.00152,0.00196l0.24466,0.55347l0.24521,0.55323l0.00042,0.00244l0.03064,0.06932l-0.01306,0.03174l0.20363,1.17059l0.02474,0.02983l-0.07201,0.62772l-0.04592,0.63016l-0.02986,0.02471l-0.55442,1.47656l0.00662,0.03772l-0.38284,0.52173l-0.36762,0.53256l-0.03781,0.0061l-0.62833,0.52152l-0.33618,0.16148l-0.29922,0.22263l-1.99895,0.83264l-0.23971,0.03616l-0.21854,0.10492l-4.05346,0.83264l-0.07764,-0.00329l-0.07197,0.02932l-0.77736,0.11101l-1.28162,-0.13265l-0.46659,-0.59996c-0.10565,-0.02946 -0.20847,-0.06568 -0.30798,-0.10817zM225.83239,178.44768l0.06658,-0.17733l-0.95607,-1.22884l-1.70881,-1.25699l-3.8819,-1.00147l-0.90266,0.13497l-0.88328,0.4548l-0.1911,0.20228l-0.06784,0.28485l-0.02647,0.58227l0.11583,0.17369c0.36503,-0.25392 0.71082,-0.38946 0.98342,-0.29206c0.14235,-0.02518 0.28887,-0.03832 0.43845,-0.03832c1.38071,0 2.5,1.11929 2.5,2.5c0.17737,0.24827 0.1214,0.55639 -0.05505,0.8776l3.25719,-0.66908z" fill="#040404" stroke="none" stroke-width="0.5"/></g></g></svg>