<svg version="1.1" xmlns="http://www.w3.org/2000/svg" xmlns:xlink="http://www.w3.org/1999/xlink" width="153.04205" height="37.0248" viewBox="0,0,153.04205,37.0248"><g transform="translate(-219.6286,-161.4876)"><g data-paper-data="{&quot;isPaintingLayer&quot;:true}" fill-rule="nonzero" stroke="none" stroke-linecap="butt" stroke-linejoin="miter" stroke-miterlimit="10" stroke-dasharray="" stroke-dashoffset="0" style="mix-blend-mode: normal"><text transform="translate(262.71752,188.24096) scale(0.5,0.5)" font-size="40" xml:space="preserve" fill="#000000" fill-rule="nonzero" stroke="none" stroke-width="1" stroke-linecap="butt" stroke-linejoin="miter" stroke-miterlimit="10" stroke-dasharray="" stroke-dashoffset="0" font-family="Sans Serif" font-weight="normal" text-anchor="start" style="mix-blend-mode: normal"><tspan x="0" dy="0">Sentry Web</tspan></text><path d="M257.40718,180c0,10.22412 -7.79346,18.5124 -17.40718,18.5124c-9.61372,0 -17.40718,-8.28828 -17.40718,-18.5124c0,-10.22412 7.79346,-18.5124 17.40718,-18.5124c9.61372,0 17.40718,8.28828 17.40718,18.5124z" fill="#3b969e" stroke-width="0"/><path d="M260.32418,189.91528c-0.75916,1.95921 -10.47402,-0.89176 -21.69876,-6.36782c-11.22473,-5.47606 -19.70875,-11.50354 -18.94959,-13.46275c0.75916,-1.95921 10.47402,0.89176 21.69876,6.36782c11.22473,5.47606 19.70875,11.50354 18.94959,13.46275z" fill="#d6ff00" stroke-width="0"/><path d="M256.97312,183.26685c-0.71373,2.16253 -8.51908,1.28003 -17.43373,-1.97112c-8.91465,-3.25115 -15.56281,-7.63981 -14.84908,-9.80234c0.71373,-2.16253 8.51908,-1.28003 17.43373,1.97112c8.91465,3.25115 15.56281,7.63981 14.84908,9.80234z" fill="#3b969e" stroke-width="0"/></g></g></svg>