<svg version="1.1" xmlns="http://www.w3.org/2000/svg" xmlns:xlink="http://www.w3.org/1999/xlink" width="22.71549" height="23.22173" viewBox="0,0,22.71549,23.22173"><g transform="translate(-241.8813,-182.1109)"><g data-paper-data="{&quot;isPaintingLayer&quot;:true}" fill="#0e0e0e" fill-rule="nonzero" stroke="none" stroke-width="0.5" stroke-linecap="butt" stroke-linejoin="miter" stroke-miterlimit="10" stroke-dasharray="" stroke-dashoffset="0" style="mix-blend-mode: normal"><path d="M262.58736,205.3157c-0.05843,0 -0.11639,-0.002 -0.17381,-0.00595c-0.049,0.00896 -0.09835,0.01661 -0.14799,0.02288c-1.15354,-1.28859 -2.63634,-2.27625 -4.31615,-2.83073c-0.75678,-0.2498 -1.55355,-0.41168 -2.3782,-0.47355c-0.74489,-0.64393 -1.46371,-1.33675 -2.14693,-2.03851l-0.16996,-0.0517l-0.25627,-0.15372l-0.12565,-0.12562l-0.1611,-0.07494l-0.53818,-0.43554l-0.11307,-0.15015l-0.15684,-0.10359l-0.15146,-0.16518l-0.23368,-0.18689l-0.12821,-0.16822l-0.17494,-0.11887l-0.54973,-0.61551l-0.66733,-0.6004l-0.03763,-0.05582l-0.05773,-0.03463l-0.38442,-0.3843l-0.18739,-0.18733l-0.00249,0.26088l0.08489,0.54314l0.34009,1.56391l0.00806,0.02418l0.00154,0.01996l0.01904,0.08754l-0.00352,0.11401l0.0015,0.01947l0.08859,0.22487l0.07746,0.59097l-0.03006,0.26101v0.3439l0.0109,0.16735l-0.05126,0.28181l-0.06838,0.15113l-0.00861,0.07481l-0.03844,0.02919l-0.04433,0.09798l-0.11238,0.44952l-0.12275,0.07014l-0.13625,0.30113l-1.02158,0.36048l-0.90693,0.51824l-0.21445,-0.12254l-0.23292,0.08219l-0.79955,-0.67217l-0.94058,-0.53747l-0.08016,-0.32066l-0.10821,-0.09097l-0.03012,-0.46238l-0.094,-0.37599v-0.18893l-0.00649,-0.01092l-0.02854,-0.03005l-0.26799,-0.474l-0.1793,-0.25094v-0.00001h-0.00001l-0.42401,-0.59342l-0.17896,-0.19517l-0.02885,-0.05318l-0.04885,-0.03569l-0.25627,-0.30744l-0.00856,-0.01772l-0.01571,-0.01185l-0.48906,-0.6053l-0.1632,-0.17798l-0.31315,-0.29218l-0.10602,-0.16359l-0.15404,-0.11948l-0.36547,-0.465c0.51887,-1.2091 0.8062,-2.5411 0.8062,-3.94021c0,-0.43057 -0.02721,-0.85478 -0.08001,-1.27101c0.71341,-2.47611 1.50485,-5.64447 1.93762,-8.55816l0.1182,-0.02371l0.03594,-0.00898h0.00885l0.01203,-0.00241l0.0513,0.00241h0.18492l0.02525,0.00631l0.2302,-0.05755h0.30918l0.20518,-0.01658l0.0153,0.00254l0.01475,-0.00478l0.26581,-0.01826l0.18846,-0.0314l0.30098,0.0241l0.00595,-0.00252l0.82008,-0.1281l0.26807,0.0242l0.26451,-0.04984l0.23764,0.01397l0.31516,-0.0315l0.46002,-0.04599l0.48593,-0.0694l0.07021,0.00727l0.06674,-0.02298l0.58944,-0.05124l0.06287,0.01003l0.06115,-0.01772l0.65363,-0.0242l0.64325,-0.0436c2.83037,0.44632 5.63342,0.969 8.36027,1.81812c1.31142,0.40836 2.61798,0.97206 3.9277,1.54839l-0.00467,0.36126l-0.38142,0.35618l-0.0771,0.51614l-1.05176,0.74429l-0.23083,0.08976l-0.09967,0.01261l-0.00062,0.00058l-0.0012,-0.00035l-0.01569,0.00199l-0.10231,0.05901l-0.17939,0.05124l-0.00679,0.00023l-0.0059,0.00336l-0.64069,0.17934l-0.33984,0.0095l-0.09896,0.04433l-0.67202,0.11964l-1.33711,0.29165l-1.25621,0.30139l-0.02399,-0.00023l-0.02148,0.01069l-0.0217,0.00478l0.09019,0.12295l0.05466,0.13376l0.09999,0.10431l0.41004,0.71735l0.03132,0.11129l0.07211,0.09036l0.94822,2.0752l0.02818,0.15176l0.08096,0.13142l0.18175,0.57303l0.01603,0.2575l0.08785,0.24258l0.00879,0.0855c0.1657,0.13542 0.33184,0.2725 0.49793,0.41107c-0.19127,3.43857 1.79748,7.04168 4.75404,9.77176c-0.40454,0.47124 -0.76596,0.98057 -1.07813,1.52189c-0.28782,0.1156 -0.60212,0.17921 -0.93127,0.17921z"/></g></g></svg>