<svg version="1.1" xmlns="http://www.w3.org/2000/svg" xmlns:xlink="http://www.w3.org/1999/xlink" width="56.58377" height="48.59715" viewBox="0,0,56.58377,48.59715"><g transform="translate(-209.6984,-156.12237)"><g data-paper-data="{&quot;isPaintingLayer&quot;:true}" fill-rule="nonzero" stroke="none" stroke-linecap="butt" stroke-linejoin="miter" stroke-miterlimit="10" stroke-dasharray="" stroke-dashoffset="0" style="mix-blend-mode: normal"><path d="M225.7856,193.19733v-37.07496h25.02401v37.07496z" fill="#d5d5d5" stroke-width="0"/><text transform="translate(209.79886,202.20789) scale(0.20093,0.20093)" font-size="40" xml:space="preserve" fill="#e0d7d7" fill-rule="nonzero" stroke="none" stroke-width="1" stroke-linecap="butt" stroke-linejoin="miter" stroke-miterlimit="10" stroke-dasharray="" stroke-dashoffset="0" font-family="Sans Serif" font-weight="normal" text-anchor="start" style="mix-blend-mode: normal"><tspan x="0" dy="0">thing.program</tspan></text><path d="M230.90597,165.77847c0,-1.38071 1.11929,-2.5 2.5,-2.5c1.38071,0 2.5,1.11929 2.5,2.5c0,1.38071 -1.11929,2.5 -2.5,2.5c-1.38071,0 -2.5,-1.11929 -2.5,-2.5z" fill="#8b8b8b" stroke-width="0.5"/><path d="M241.49886,165.99465c0,-1.38071 1.11929,-2.5 2.5,-2.5c1.38071,0 2.5,1.11929 2.5,2.5c0,1.38071 -1.11929,2.5 -2.5,2.5c-1.38071,0 -2.5,-1.11929 -2.5,-2.5z" fill="#8b8b8b" stroke-width="0.5"/><path d="M247.66067,172.85809c2,1.5 0.5,3.5 0.5,3.5l-0.69637,0.92646c-1.30786,1.62615 -1.81703,4.03903 -3.60161,5.12076c-1.79042,1.08527 -3.96493,2.08412 -6.03194,1.75111c-1.97811,-0.31869 -4.76757,-6.40684 -5.7195,-8.03866c0,0 -1.25968,-2.15945 0.89977,-3.41912c2.15945,-1.25968 3.41912,0.89977 3.41912,0.89977c0.90788,1.55642 2.01934,3.00699 2.74811,4.65488c0.15587,0.35244 -0.19827,1.06663 0.17964,1.14206c1.16997,0.23355 3.71862,-4.62715 4.20206,-5.23428l0.60072,-0.80299c0,0 1.5,-2 3.5,-0.5z" fill="#8b8b8b" stroke-width="0.5"/></g></g></svg>