<svg version="1.1" xmlns="http://www.w3.org/2000/svg" xmlns:xlink="http://www.w3.org/1999/xlink" width="74.42572" height="133.1506" viewBox="0,0,74.42572,133.1506"><g transform="translate(-202.21543,-60.78224)"><g data-paper-data="{&quot;isPaintingLayer&quot;:true}" fill-rule="nonzero" stroke="none" stroke-linecap="butt" stroke-linejoin="miter" stroke-miterlimit="10" stroke-dasharray="" stroke-dashoffset="0" style="mix-blend-mode: normal"><path d="M206.3213,166.71985c0.10622,-0.21334 0.20503,-0.43102 0.29612,-0.65268h65.37128c2.59982,2.92354 3.60978,6.94429 4.22887,10.65635c1.35191,8.10609 -0.49523,11.43732 -6.07535,15.72544c-0.39249,0.30161 -0.96594,0.82319 -1.62538,1.48388h-55.59776c-1.93873,-1.26258 -3.84425,-2.58445 -5.73403,-3.99905c-0.82369,-0.61657 -3.48037,-2.48193 -3.48587,-3.6428c-0.0156,-3.28648 0.33747,-6.46055 0.39978,-9.70064c0.00881,-0.45836 -0.31253,-3.87845 -0.04966,-6.88445c0.93291,-0.83918 1.70709,-1.85136 2.272,-2.98605z" fill="#ffffff" stroke-width="0"/><text transform="translate(213.33002,185.76875) scale(0.5,0.5)" font-size="40" xml:space="preserve" fill="#101010" fill-rule="nonzero" stroke="none" stroke-width="1" stroke-linecap="butt" stroke-linejoin="miter" stroke-miterlimit="10" stroke-dasharray="" stroke-dashoffset="0" font-family="Sans Serif" font-weight="normal" text-anchor="start" style="mix-blend-mode: normal"><tspan x="0" dy="0">Login</tspan></text><path d="M274.18488,95.02329c0,18.91081 -16.11091,34.24105 -35.98473,34.24105c-19.87382,0 -35.98473,-15.33024 -35.98473,-34.24105c0,-18.91081 16.11091,-34.24105 35.98473,-34.24105c19.87382,0 35.98473,15.33024 35.98473,34.24105z" fill="#181029" stroke-width="0"/><path d="M242.2578,75.6251c-0.56152,0.1336 -1.0351,0.0683 -1.0351,0.0683c-3.5635,-0.51498 -6.53978,-0.66951 -9.5814,1.58675c-4.1497,3.07823 -1.8334,9.47807 2.49718,10.7724c5.44264,1.6267 11.75765,-3.09989 10.70125,-8.86006c-0.17579,-0.95851 -1.88052,-2.80545 -2.58193,-3.56739zM242.56999,70.93478c1.99109,-0.97969 3.17657,0.99555 3.17657,0.99555l0.07045,0.18089c1.39612,1.6653 3.44388,3.627 3.8889,5.93219c1.77634,9.20145 -7.79166,17.74859 -16.89409,14.82992c-8.04174,-2.57856 -11.63612,-13.69233 -4.35443,-19.44839c4.15154,-3.28172 8.47497,-3.34343 13.44828,-2.68468c0,0 0.29341,0.04046 0.66433,0.19451z" fill="#ffffff" stroke-width="0.5"/><path d="M251.96204,117.70289c-2.5,0 -2.5,-2.5 -2.5,-2.5v-1.01908c0.00023,-3.21126 0.46682,-6.53335 -1.06951,-9.51365c-1.36424,-2.64648 -4.59754,-2.06106 -6.93029,-2.04963c-2.03843,0.00999 -5.5252,-0.22902 -7.55014,0.54151c-4.7593,1.81102 -5.16463,6.61369 -5.13888,11.02177c0,0 0,2.5 -2.5,2.5c-2.5,0 -2.5,-2.5 -2.5,-2.5c0.02076,-4.25682 0.24821,-9.34513 3.57384,-12.55679c4.15839,-4.0159 8.76493,-4.02876 14.11518,-4.00649c4.41092,0.01837 8.69944,0.06103 11.21496,4.47249c2.18741,3.83606 1.78455,7.90861 1.78484,12.09079v1.01908c0,0 0,2.5 -2.5,2.5z" fill="#ffffff" stroke-width="0.5"/></g></g></svg>