<svg version="1.1" xmlns="http://www.w3.org/2000/svg" xmlns:xlink="http://www.w3.org/1999/xlink" width="18.58674" height="18.8861" viewBox="0,0,18.58674,18.8861"><g transform="translate(-225.8785,-163.40059)"><g data-paper-data="{&quot;isPaintingLayer&quot;:true}" fill-rule="nonzero" stroke="none" stroke-width="0.5" stroke-linecap="butt" stroke-linejoin="miter" stroke-miterlimit="10" stroke-dasharray="" stroke-dashoffset="0" style="mix-blend-mode: normal"><path d="" fill="#948da2"/><path d="" fill="#948da2"/><path d="M236.83502,175.55411c0,-0.29039 0.23541,-0.5258 0.5258,-0.5258c0.29039,0 0.5258,0.23541 0.5258,0.5258c0,0.29039 -0.23541,0.5258 -0.5258,0.5258c-0.29039,0 -0.5258,-0.23541 -0.5258,-0.5258z" fill="#948da2"/><path d="M235.83121,182.28669c-2.88768,0 -2.88768,-5.41286 -2.88768,-5.41286c0,-2.26256 0,-5.79781 0,-8.06037c0,0 0,-5.41286 2.88768,-5.41286c2.88768,0 2.88768,5.41286 2.88768,5.41286c0,2.26256 0,4.52512 0,6.78768v1.27269c0,0 0,5.41286 -2.88768,5.41286z" fill="#a0a0a0"/><path d="M236.75435,169.24256c-0.00503,-0.05595 -0.00771,-0.11549 -0.00771,-0.17885c0,-1.05159 0.7376,-1.05159 0.7376,-1.05159l0.64137,0.0314c1.27964,0.46852 2.60592,0.55916 3.91395,0.98324c0.42409,0.13749 0.90988,0.05082 1.27663,0.3841c0.04045,0.03676 0.07948,0.07591 0.11726,0.11714l0.00962,-0.02058l0.68419,0.6503c0.20336,0.18724 0.33797,0.51322 0.33797,0.88402c0,0.50045 -0.24521,0.91926 -0.57368,1.02553l-0.90998,0.32434c-1.40087,0.4993 -2.65808,1.01123 -4.10992,1.02041c0,0 -0.7376,0 -0.7376,-1.05159c0,-0.48949 0.15981,-0.75113 0.33066,-0.89099c-1.12208,-0.14534 -2.26203,-0.16549 -3.40238,-0.1444c0.16225,0.04509 0.67411,0.25795 0.61224,1.14003c-0.07339,1.04637 -0.80734,0.94174 -0.80734,0.94174l-0.84448,-0.1204c-0.80897,-0.11682 -1.60302,-0.39461 -2.40956,-0.54161c-1.31762,-0.24014 -2.772,0.3878 -4.07214,0.00788l-0.92495,0c0,0 0,0 0,0c-0.40737,0 -0.7376,-0.47081 -0.7376,-1.05159c0,-0.3708 0.13462,-0.69678 0.33797,-0.88402l0.68419,-0.6503l0.02751,0.05884l0.08324,-0.14555c1.3841,-0.51196 2.70646,-1.47537 4.13931,-1.73037c0.05772,-0.01027 1.82998,-0.00788 1.94002,-0.00788c0,0 0.67606,0 0.7337,0.92277c0.97611,-0.03069 1.9557,-0.05402 2.92991,-0.02199z" fill="#a0a0a0"/></g></g></svg>