<svg version="1.1" xmlns="http://www.w3.org/2000/svg" xmlns:xlink="http://www.w3.org/1999/xlink" width="55.30454" height="14.15487" viewBox="0,0,55.30454,14.15487"><g transform="translate(-212.34773,-172.92256)"><g data-paper-data="{&quot;isPaintingLayer&quot;:true}" fill-rule="nonzero" stroke="none" stroke-linecap="butt" stroke-linejoin="miter" stroke-miterlimit="10" stroke-dasharray="" stroke-dashoffset="0" style="mix-blend-mode: normal"><path d="M212.34773,187.07744v-14.15487h55.30454v14.15487z" fill="#e00f0f" stroke-width="0"/><path d="M226.90536,182.7997c0.25846,-0.87473 0.83706,-1.64989 1.62938,-2.34423c0.68676,-0.60184 1.53407,-1.14296 2.47262,-1.6356c-0.57103,-0.33191 -1.00051,-0.69064 -1.02378,-1.05468c-0.261,-0.39484 -0.41295,-0.86808 -0.41295,-1.37681c0,-1.2205 0.8746,-2.23672 2.03126,-2.45613c0.09673,-0.03213 0.19911,-0.0522 0.30806,-0.0582c1.79251,-0.09871 3.853,0.94034 5.88681,2.26553c1.33417,-0.44951 2.5599,-0.86097 3.51465,-1.26303c0.89331,-0.37619 3.82556,-1.85381 4.85408,-1.4512c6.30904,2.46966 -0.7543,5.14058 -2.91494,6.05591c-0.1464,0.06202 -0.29023,0.12357 -0.4319,0.18474c0.43452,0.29101 0.85205,0.55484 1.24821,0.77886c1.64911,0.93253 5.00146,2.42629 4.02626,4.86507c-1.20896,3.02339 -7.09602,-0.40387 -11.04251,-2.99658c-1.89941,0.92231 -7.1574,3.42068 -7.81745,2.98052z" fill="#080101" stroke-width="0.5"/></g></g></svg>